<svg width="250" height="184" viewBox="0 0 250 184" fill="none" xmlns="http://www.w3.org/2000/svg">
<g filter="url(#filter0_d_116_49)">
<rect x="25.6107" y="25.6106" width="198.299" height="132.444" rx="2.92693" fill="white"/>
<g clip-path="url(#clip0_116_49)">
<rect x="110.126" y="65.5269" width="17.0737" height="17.0738" fill="#7595FD"/>
<path d="M133.286 55.7705H121.114C119.759 55.7705 118.663 56.8669 118.663 58.2218V65.0964L112.928 70.7576C112.756 70.9275 112.639 71.1446 112.591 71.3814C112.543 71.6182 112.566 71.864 112.658 72.0876C112.749 72.3112 112.905 72.5024 113.106 72.6372C113.307 72.7719 113.543 72.8439 113.784 72.8442V78.942C113.784 79.2654 113.913 79.5756 114.142 79.8044C114.37 80.0331 114.68 80.1616 115.004 80.1616H134.517C134.84 80.1616 135.15 80.0331 135.379 79.8044C135.608 79.5756 135.736 79.2654 135.736 78.942V58.2206C135.736 56.8669 134.641 55.7705 133.286 55.7705ZM123.446 71.76V77.7224H116.223V70.932L119.866 67.3355L123.446 70.9978V71.76ZM125.98 64.3074H123.541V61.8682H125.98V64.3074ZM130.858 74.0638H128.419V71.6247H130.858V74.0638ZM130.858 69.1856H128.419V66.7465H130.858V69.1856ZM130.858 64.3074H128.419V61.8682H130.858V64.3074Z" fill="#292E3D"/>
<path d="M118.663 71.6247H121.102V74.0638H118.663V71.6247Z" fill="#14171F"/>
</g>
<rect x="102.808" y="97.2353" width="43.9039" height="1.46346" fill="#E0E3EB"/>
<path d="M69.9537 124.67C69.7683 125.294 69.4756 125.816 69.0756 126.236C68.6756 126.655 68.2024 126.968 67.6561 127.172C67.1097 127.377 66.5097 127.48 65.856 127.48C64.8999 127.48 64.0706 127.28 63.3681 126.88C62.6754 126.48 62.1388 125.909 61.7583 125.167C61.3875 124.426 61.2022 123.538 61.2022 122.504C61.2022 121.47 61.3875 120.582 61.7583 119.84C62.1388 119.099 62.6754 118.528 63.3681 118.128C64.0706 117.728 64.8901 117.528 65.8267 117.528C66.4902 117.528 67.0902 117.621 67.6268 117.806C68.1634 117.982 68.6171 118.255 68.9878 118.626C69.3683 118.997 69.6464 119.465 69.822 120.031L67.9926 120.806C67.8268 120.221 67.5731 119.806 67.2316 119.562C66.8902 119.309 66.4511 119.182 65.9145 119.182C65.3877 119.182 64.9243 119.309 64.5242 119.562C64.134 119.816 63.8315 120.192 63.6169 120.689C63.4022 121.177 63.2949 121.782 63.2949 122.504C63.2949 123.216 63.3925 123.821 63.5876 124.319C63.7925 124.816 64.0901 125.192 64.4803 125.446C64.8706 125.699 65.3487 125.826 65.9145 125.826C66.4414 125.826 66.895 125.685 67.2756 125.402C67.6658 125.119 67.939 124.689 68.0951 124.114L69.9537 124.67ZM72.4799 118.962C72.0604 118.962 71.7481 118.875 71.5433 118.699C71.3384 118.514 71.2359 118.245 71.2359 117.894C71.2359 117.533 71.3384 117.265 71.5433 117.089C71.7481 116.904 72.0604 116.811 72.4799 116.811C72.8994 116.811 73.2116 116.904 73.4165 117.089C73.6214 117.265 73.7238 117.533 73.7238 117.894C73.7238 118.245 73.6214 118.514 73.4165 118.699C73.2116 118.875 72.8994 118.962 72.4799 118.962ZM73.475 120.016V127.333H71.4701V120.016H73.475ZM80.4005 120.016H82.4787L79.6981 127.333H77.3858L74.6052 120.016H76.7419L78.5566 125.797L80.4005 120.016ZM84.5992 118.962C84.1797 118.962 83.8675 118.875 83.6626 118.699C83.4577 118.514 83.3552 118.245 83.3552 117.894C83.3552 117.533 83.4577 117.265 83.6626 117.089C83.8675 116.904 84.1797 116.811 84.5992 116.811C85.0187 116.811 85.3309 116.904 85.5358 117.089C85.7407 117.265 85.8431 117.533 85.8431 117.894C85.8431 118.245 85.7407 118.514 85.5358 118.699C85.3309 118.875 85.0187 118.962 84.5992 118.962ZM85.5943 120.016V127.333H83.5894V120.016H85.5943ZM89.6954 116.811V125.08C89.6954 125.421 89.7539 125.66 89.871 125.797C89.9881 125.933 90.1832 126.002 90.4564 126.002C90.6222 126.002 90.7588 125.992 90.8661 125.972C90.9735 125.943 91.1101 125.904 91.2759 125.855L91.1003 127.172C90.9344 127.27 90.7247 127.343 90.471 127.392C90.2271 127.45 89.9832 127.48 89.7393 127.48C89.0271 127.48 88.5051 127.309 88.1734 126.968C87.8514 126.616 87.6904 126.06 87.6904 125.299V116.811H89.6954ZM105.025 124.67C104.84 125.294 104.547 125.816 104.147 126.236C103.747 126.655 103.274 126.968 102.728 127.172C102.181 127.377 101.581 127.48 100.928 127.48C99.9716 127.48 99.1423 127.28 98.4398 126.88C97.7471 126.48 97.2105 125.909 96.83 125.167C96.4592 124.426 96.2739 123.538 96.2739 122.504C96.2739 121.47 96.4592 120.582 96.83 119.84C97.2105 119.099 97.7471 118.528 98.4398 118.128C99.1423 117.728 99.9618 117.528 100.898 117.528C101.562 117.528 102.162 117.621 102.698 117.806C103.235 117.982 103.689 118.255 104.059 118.626C104.44 118.997 104.718 119.465 104.894 120.031L103.064 120.806C102.898 120.221 102.645 119.806 102.303 119.562C101.962 119.309 101.523 119.182 100.986 119.182C100.459 119.182 99.9959 119.309 99.5959 119.562C99.2057 119.816 98.9032 120.192 98.6886 120.689C98.4739 121.177 98.3666 121.782 98.3666 122.504C98.3666 123.216 98.4642 123.821 98.6593 124.319C98.8642 124.816 99.1618 125.192 99.552 125.446C99.9423 125.699 100.42 125.826 100.986 125.826C101.513 125.826 101.967 125.685 102.347 125.402C102.738 125.119 103.011 124.689 103.167 124.114L105.025 124.67ZM109.878 119.87C110.62 119.87 111.269 120.021 111.825 120.323C112.391 120.626 112.83 121.06 113.142 121.626C113.464 122.192 113.625 122.875 113.625 123.675C113.625 124.465 113.464 125.148 113.142 125.724C112.83 126.289 112.391 126.724 111.825 127.026C111.269 127.329 110.62 127.48 109.878 127.48C109.147 127.48 108.498 127.329 107.932 127.026C107.366 126.724 106.922 126.289 106.6 125.724C106.288 125.148 106.132 124.465 106.132 123.675C106.132 122.875 106.288 122.192 106.6 121.626C106.922 121.06 107.366 120.626 107.932 120.323C108.498 120.021 109.147 119.87 109.878 119.87ZM109.878 121.362C109.508 121.362 109.191 121.45 108.927 121.626C108.674 121.792 108.478 122.045 108.342 122.387C108.205 122.728 108.137 123.158 108.137 123.675C108.137 124.192 108.205 124.621 108.342 124.963C108.478 125.304 108.674 125.563 108.927 125.738C109.191 125.904 109.508 125.987 109.878 125.987C110.239 125.987 110.547 125.904 110.8 125.738C111.064 125.563 111.264 125.304 111.4 124.963C111.537 124.621 111.605 124.192 111.605 123.675C111.605 123.158 111.537 122.728 111.4 122.387C111.264 122.045 111.064 121.792 110.8 121.626C110.547 121.45 110.239 121.362 109.878 121.362ZM115.303 127.333V120.016H117.103L117.22 122.211L116.971 121.977C117.088 121.499 117.273 121.104 117.527 120.792C117.781 120.48 118.088 120.25 118.449 120.104C118.82 119.948 119.225 119.87 119.664 119.87C120.171 119.87 120.62 119.967 121.01 120.162C121.41 120.358 121.722 120.655 121.947 121.055C122.181 121.445 122.298 121.938 122.298 122.533V127.333H120.293V123.104C120.293 122.48 120.171 122.05 119.927 121.816C119.683 121.572 119.366 121.45 118.976 121.45C118.703 121.45 118.434 121.519 118.171 121.655C117.917 121.782 117.708 121.992 117.542 122.284C117.386 122.577 117.308 122.967 117.308 123.455V127.333H115.303ZM127.29 127.48C126.549 127.48 125.871 127.348 125.256 127.085C124.651 126.821 124.159 126.45 123.778 125.972L124.934 124.802C125.168 125.153 125.481 125.441 125.871 125.665C126.261 125.889 126.725 126.002 127.261 126.002C127.642 126.002 127.944 125.948 128.168 125.841C128.403 125.724 128.52 125.543 128.52 125.299C128.52 125.143 128.466 125.011 128.359 124.904C128.251 124.787 128.037 124.694 127.715 124.626L126.427 124.363C125.578 124.187 124.973 123.924 124.612 123.572C124.261 123.211 124.085 122.748 124.085 122.182C124.085 121.782 124.202 121.406 124.437 121.055C124.681 120.704 125.042 120.421 125.52 120.206C125.998 119.982 126.593 119.87 127.305 119.87C128.037 119.87 128.671 119.987 129.208 120.221C129.754 120.445 130.183 120.782 130.495 121.231L129.295 122.402C129.081 122.06 128.798 121.802 128.447 121.626C128.105 121.441 127.744 121.348 127.364 121.348C127.09 121.348 126.856 121.377 126.661 121.436C126.466 121.494 126.32 121.577 126.222 121.684C126.125 121.782 126.076 121.909 126.076 122.065C126.076 122.221 126.144 122.358 126.281 122.475C126.417 122.582 126.666 122.675 127.027 122.753L128.52 123.06C129.242 123.206 129.759 123.455 130.071 123.806C130.383 124.148 130.539 124.563 130.539 125.05C130.539 125.519 130.412 125.938 130.159 126.309C129.915 126.67 129.549 126.958 129.061 127.172C128.583 127.377 127.993 127.48 127.29 127.48ZM134.728 117.777V124.948C134.728 125.299 134.816 125.558 134.992 125.724C135.177 125.88 135.426 125.958 135.738 125.958C135.982 125.958 136.197 125.924 136.382 125.855C136.568 125.777 136.733 125.675 136.88 125.548L137.202 126.88C136.968 127.065 136.675 127.211 136.324 127.319C135.972 127.426 135.602 127.48 135.211 127.48C134.724 127.48 134.289 127.407 133.909 127.26C133.538 127.114 133.245 126.88 133.031 126.558C132.826 126.236 132.724 125.807 132.724 125.27V118.333L134.728 117.777ZM137.07 120.016V121.509H131.377V120.016H137.07ZM138.426 127.333V120.016H140.168L140.3 121.45C140.495 120.943 140.778 120.553 141.148 120.28C141.529 120.006 142.002 119.87 142.568 119.87C142.734 119.87 142.885 119.884 143.022 119.914C143.158 119.943 143.271 119.982 143.358 120.031L143.124 121.714C143.027 121.675 142.905 121.645 142.758 121.626C142.622 121.606 142.441 121.597 142.217 121.597C141.924 121.597 141.641 121.67 141.368 121.816C141.095 121.953 140.87 122.167 140.695 122.46C140.519 122.743 140.431 123.104 140.431 123.543V127.333H138.426ZM147.147 127.48C146.659 127.48 146.22 127.392 145.83 127.216C145.439 127.041 145.127 126.763 144.893 126.382C144.669 125.992 144.557 125.489 144.557 124.875V120.016H146.561V124.392C146.561 124.958 146.679 125.353 146.913 125.577C147.147 125.792 147.483 125.899 147.922 125.899C148.127 125.899 148.327 125.865 148.523 125.797C148.718 125.719 148.888 125.602 149.035 125.446C149.191 125.289 149.313 125.089 149.401 124.846C149.488 124.592 149.532 124.294 149.532 123.953V120.016H151.537V127.333H149.752L149.679 126.06C149.435 126.548 149.098 126.909 148.669 127.143C148.249 127.368 147.742 127.48 147.147 127.48ZM156.969 119.87C157.623 119.87 158.174 119.967 158.623 120.162C159.081 120.348 159.447 120.606 159.72 120.938C160.003 121.26 160.203 121.621 160.32 122.021L158.447 122.694C158.35 122.255 158.184 121.923 157.95 121.699C157.715 121.475 157.398 121.362 156.998 121.362C156.628 121.362 156.311 121.45 156.047 121.626C155.784 121.792 155.584 122.05 155.447 122.402C155.311 122.743 155.242 123.172 155.242 123.689C155.242 124.206 155.311 124.636 155.447 124.977C155.593 125.319 155.798 125.572 156.062 125.738C156.335 125.904 156.652 125.987 157.013 125.987C157.306 125.987 157.554 125.938 157.759 125.841C157.964 125.733 158.13 125.582 158.257 125.387C158.394 125.192 158.486 124.958 158.535 124.685L160.35 125.27C160.242 125.709 160.042 126.094 159.75 126.426C159.457 126.758 159.081 127.016 158.623 127.202C158.164 127.387 157.633 127.48 157.028 127.48C156.276 127.48 155.613 127.329 155.037 127.026C154.462 126.724 154.018 126.289 153.706 125.724C153.393 125.158 153.237 124.475 153.237 123.675C153.237 122.875 153.393 122.192 153.706 121.626C154.018 121.06 154.457 120.626 155.023 120.323C155.589 120.021 156.237 119.87 156.969 119.87ZM164.498 117.777V124.948C164.498 125.299 164.586 125.558 164.761 125.724C164.947 125.88 165.196 125.958 165.508 125.958C165.752 125.958 165.966 125.924 166.152 125.855C166.337 125.777 166.503 125.675 166.649 125.548L166.971 126.88C166.737 127.065 166.444 127.211 166.093 127.319C165.742 127.426 165.371 127.48 164.981 127.48C164.493 127.48 164.059 127.407 163.678 127.26C163.308 127.114 163.015 126.88 162.8 126.558C162.595 126.236 162.493 125.807 162.493 125.27V118.333L164.498 117.777ZM166.839 120.016V121.509H161.147V120.016H166.839ZM169.206 118.962C168.786 118.962 168.474 118.875 168.269 118.699C168.064 118.514 167.962 118.245 167.962 117.894C167.962 117.533 168.064 117.265 168.269 117.089C168.474 116.904 168.786 116.811 169.206 116.811C169.625 116.811 169.937 116.904 170.142 117.089C170.347 117.265 170.45 117.533 170.45 117.894C170.45 118.245 170.347 118.514 170.142 118.699C169.937 118.875 169.625 118.962 169.206 118.962ZM170.201 120.016V127.333H168.196V120.016H170.201ZM175.663 119.87C176.404 119.87 177.053 120.021 177.609 120.323C178.175 120.626 178.614 121.06 178.926 121.626C179.248 122.192 179.409 122.875 179.409 123.675C179.409 124.465 179.248 125.148 178.926 125.724C178.614 126.289 178.175 126.724 177.609 127.026C177.053 127.329 176.404 127.48 175.663 127.48C174.931 127.48 174.282 127.329 173.717 127.026C173.151 126.724 172.707 126.289 172.385 125.724C172.073 125.148 171.916 124.465 171.916 123.675C171.916 122.875 172.073 122.192 172.385 121.626C172.707 121.06 173.151 120.626 173.717 120.323C174.282 120.021 174.931 119.87 175.663 119.87ZM175.663 121.362C175.292 121.362 174.975 121.45 174.712 121.626C174.458 121.792 174.263 122.045 174.126 122.387C173.99 122.728 173.921 123.158 173.921 123.675C173.921 124.192 173.99 124.621 174.126 124.963C174.263 125.304 174.458 125.563 174.712 125.738C174.975 125.904 175.292 125.987 175.663 125.987C176.024 125.987 176.331 125.904 176.585 125.738C176.848 125.563 177.048 125.304 177.185 124.963C177.322 124.621 177.39 124.192 177.39 123.675C177.39 123.158 177.322 122.728 177.185 122.387C177.048 122.045 176.848 121.792 176.585 121.626C176.331 121.45 176.024 121.362 175.663 121.362ZM181.087 127.333V120.016H182.887L183.004 122.211L182.755 121.977C182.872 121.499 183.058 121.104 183.311 120.792C183.565 120.48 183.872 120.25 184.233 120.104C184.604 119.948 185.009 119.87 185.448 119.87C185.955 119.87 186.404 119.967 186.795 120.162C187.195 120.358 187.507 120.655 187.731 121.055C187.965 121.445 188.082 121.938 188.082 122.533V127.333H186.077V123.104C186.077 122.48 185.955 122.05 185.712 121.816C185.468 121.572 185.151 121.45 184.76 121.45C184.487 121.45 184.219 121.519 183.955 121.655C183.702 121.782 183.492 121.992 183.326 122.284C183.17 122.577 183.092 122.967 183.092 123.455V127.333H181.087Z" fill="#2947A9"/>
</g>
<defs>
<filter id="filter0_d_116_49" x="3.016e-05" y="-3.57628e-07" width="249.521" height="183.665" filterUnits="userSpaceOnUse" color-interpolation-filters="sRGB">
<feFlood flood-opacity="0" result="BackgroundImageFix"/>
<feColorMatrix in="SourceAlpha" type="matrix" values="0 0 0 0 0 0 0 0 0 0 0 0 0 0 0 0 0 0 127 0" result="hardAlpha"/>
<feMorphology radius="1.46346" operator="erode" in="SourceAlpha" result="effect1_dropShadow_116_49"/>
<feOffset/>
<feGaussianBlur stdDeviation="13.537"/>
<feColorMatrix type="matrix" values="0 0 0 0 0.0666667 0 0 0 0 0.0941176 0 0 0 0 0.152941 0 0 0 0.05 0"/>
<feBlend mode="normal" in2="BackgroundImageFix" result="effect1_dropShadow_116_49"/>
<feBlend mode="normal" in="SourceGraphic" in2="effect1_dropShadow_116_49" result="shape"/>
</filter>
<clipPath id="clip0_116_49">
<rect width="29.2693" height="29.2693" fill="white" transform="translate(110.126 53.3314)"/>
</clipPath>
</defs>
</svg>