<svg width="249" height="184" viewBox="0 0 249 184" fill="none" xmlns="http://www.w3.org/2000/svg">
<g filter="url(#filter0_d_116_106)">
<rect x="25.6106" y="25.6106" width="197.568" height="132.444" rx="2.92693" fill="#0379B9"/>
<g clip-path="url(#clip0_116_106)">
<rect x="109.76" y="65.5269" width="17.0737" height="17.0738" fill="#7595FD"/>
<path d="M135.37 70.4051C135.37 69.7344 134.822 69.1856 134.151 69.1856H131.712V71.6247H134.151C134.822 71.6247 135.37 71.0759 135.37 70.4051ZM134.151 74.0638H131.712V76.5029H134.151C134.822 76.5029 135.37 75.9541 135.37 75.2833C135.37 74.6126 134.822 74.0638 134.151 74.0638ZM124.394 70.4051H121.955V75.2833H124.394C124.394 76.6248 125.492 77.7224 126.834 77.7224H130.492V67.966H126.834C125.492 67.966 124.394 69.0636 124.394 70.4051Z" fill="white"/>
<path d="M115.858 69.1855C115.858 67.844 116.955 66.7464 118.297 66.7464H120.126C122.48 66.7464 124.394 64.8317 124.394 62.478C124.394 60.1243 122.48 58.2096 120.126 58.2096H115.858C115.187 58.2096 114.638 58.7584 114.638 59.4291C114.638 60.0999 115.187 60.6487 115.858 60.6487H120.126C121.138 60.6487 121.955 61.4658 121.955 62.478C121.955 63.4902 121.138 64.3073 120.126 64.3073H118.297C115.601 64.3073 113.418 66.4903 113.418 69.1855C113.418 71.8808 115.601 74.0638 118.297 74.0638H120.736V71.6247H118.297C116.955 71.6247 115.858 70.5271 115.858 69.1855Z" fill="white"/>
</g>
<rect x="102.443" y="97.2353" width="43.9039" height="1.46346" fill="#E0E3EB"/>
<path d="M84.1573 127.333V117.675H91.4014V119.299H86.1768V121.699H90.2892V123.25H86.1768V125.709H91.6063V127.333H84.1573ZM97.3842 122.665C97.3842 122.245 97.2623 121.919 97.0184 121.684C96.7842 121.45 96.472 121.333 96.0818 121.333C95.7208 121.333 95.4037 121.426 95.1305 121.611C94.8573 121.797 94.6573 122.104 94.5305 122.533L92.8182 122.006C92.9841 121.362 93.3451 120.845 93.9012 120.455C94.4671 120.065 95.2232 119.87 96.1696 119.87C96.8135 119.87 97.3745 119.972 97.8525 120.177C98.3306 120.372 98.7014 120.67 98.9648 121.07C99.238 121.47 99.3745 121.972 99.3745 122.577V125.548C99.3745 125.919 99.5502 126.104 99.9014 126.104C100.067 126.104 100.223 126.08 100.37 126.031L100.253 127.275C99.999 127.402 99.6819 127.465 99.3014 127.465C98.9599 127.465 98.6526 127.407 98.3794 127.29C98.1062 127.172 97.8916 126.997 97.7355 126.763C97.5794 126.519 97.5013 126.216 97.5013 125.855V125.797L97.8525 125.738C97.794 126.109 97.633 126.426 97.3696 126.689C97.1062 126.943 96.7842 127.138 96.4037 127.275C96.033 127.411 95.6476 127.48 95.2476 127.48C94.75 127.48 94.3207 127.407 93.9597 127.26C93.5987 127.104 93.3207 126.88 93.1256 126.587C92.9304 126.294 92.8329 125.933 92.8329 125.504C92.8329 124.958 93.0085 124.514 93.3597 124.172C93.7109 123.821 94.2134 123.582 94.8671 123.455L97.6184 122.899L97.6038 124.143L95.8476 124.494C95.5159 124.563 95.2622 124.655 95.0866 124.772C94.9207 124.88 94.8378 125.06 94.8378 125.314C94.8378 125.558 94.9256 125.743 95.1012 125.87C95.2866 125.997 95.5061 126.06 95.7598 126.06C95.9647 126.06 96.1647 126.036 96.3598 125.987C96.5549 125.938 96.7306 125.86 96.8867 125.753C97.0428 125.646 97.1647 125.499 97.2525 125.314C97.3403 125.128 97.3842 124.904 97.3842 124.641V122.665ZM101.617 127.333V120.016H103.358L103.49 121.45C103.685 120.943 103.968 120.553 104.339 120.28C104.719 120.006 105.193 119.87 105.758 119.87C105.924 119.87 106.076 119.884 106.212 119.914C106.349 119.943 106.461 119.982 106.549 120.031L106.315 121.714C106.217 121.675 106.095 121.645 105.949 121.626C105.812 121.606 105.632 121.597 105.407 121.597C105.115 121.597 104.832 121.67 104.558 121.816C104.285 121.953 104.061 122.167 103.885 122.46C103.71 122.743 103.622 123.104 103.622 123.543V127.333H101.617ZM110.11 117.777V124.948C110.11 125.299 110.197 125.558 110.373 125.724C110.558 125.88 110.807 125.958 111.119 125.958C111.363 125.958 111.578 125.924 111.763 125.855C111.949 125.777 112.115 125.675 112.261 125.548L112.583 126.88C112.349 127.065 112.056 127.211 111.705 127.319C111.354 127.426 110.983 127.48 110.593 127.48C110.105 127.48 109.671 127.407 109.29 127.26C108.919 127.114 108.627 126.88 108.412 126.558C108.207 126.236 108.105 125.807 108.105 125.27V118.333L110.11 117.777ZM112.451 120.016V121.509H106.758V120.016H112.451ZM113.922 127.333V116.811H115.927V121.26C116.161 120.792 116.483 120.445 116.893 120.221C117.303 119.987 117.766 119.87 118.283 119.87C118.79 119.87 119.239 119.967 119.629 120.162C120.029 120.358 120.342 120.655 120.566 121.055C120.8 121.445 120.917 121.938 120.917 122.533V127.333H118.912V123.119C118.912 122.484 118.79 122.05 118.547 121.816C118.303 121.572 117.99 121.45 117.61 121.45C117.327 121.45 117.054 121.519 116.79 121.655C116.537 121.782 116.327 121.997 116.161 122.299C116.005 122.592 115.927 122.982 115.927 123.47V127.333H113.922ZM132.351 120.016H134.487L132.146 127.333H129.834L128.238 122.358L126.702 127.333H124.389L122.048 120.016H124.185L125.648 125.621L127.273 120.016H129.263L130.902 125.621L132.351 120.016ZM138.868 119.87C139.609 119.87 140.258 120.021 140.814 120.323C141.38 120.626 141.819 121.06 142.131 121.626C142.453 122.192 142.614 122.875 142.614 123.675C142.614 124.465 142.453 125.148 142.131 125.724C141.819 126.289 141.38 126.724 140.814 127.026C140.258 127.329 139.609 127.48 138.868 127.48C138.136 127.48 137.487 127.329 136.921 127.026C136.355 126.724 135.911 126.289 135.589 125.724C135.277 125.148 135.121 124.465 135.121 123.675C135.121 122.875 135.277 122.192 135.589 121.626C135.911 121.06 136.355 120.626 136.921 120.323C137.487 120.021 138.136 119.87 138.868 119.87ZM138.868 121.362C138.497 121.362 138.18 121.45 137.916 121.626C137.663 121.792 137.468 122.045 137.331 122.387C137.194 122.728 137.126 123.158 137.126 123.675C137.126 124.192 137.194 124.621 137.331 124.963C137.468 125.304 137.663 125.563 137.916 125.738C138.18 125.904 138.497 125.987 138.868 125.987C139.229 125.987 139.536 125.904 139.79 125.738C140.053 125.563 140.253 125.304 140.39 124.963C140.526 124.621 140.595 124.192 140.595 123.675C140.595 123.158 140.526 122.728 140.39 122.387C140.253 122.045 140.053 121.792 139.79 121.626C139.536 121.45 139.229 121.362 138.868 121.362ZM144.292 127.333V120.016H146.033L146.165 121.45C146.36 120.943 146.643 120.553 147.014 120.28C147.394 120.006 147.867 119.87 148.433 119.87C148.599 119.87 148.75 119.884 148.887 119.914C149.024 119.943 149.136 119.982 149.224 120.031L148.989 121.714C148.892 121.675 148.77 121.645 148.624 121.626C148.487 121.606 148.306 121.597 148.082 121.597C147.789 121.597 147.506 121.67 147.233 121.816C146.96 121.953 146.736 122.167 146.56 122.46C146.384 122.743 146.297 123.104 146.297 123.543V127.333H144.292ZM157.915 120.016L154.534 123.543L154.139 123.733L151.944 126.089L151.915 123.953L155.632 120.016H157.915ZM152.471 116.811V127.333H150.466V116.811H152.471ZM154.812 122.343L158.09 127.333H155.822L153.437 123.514L154.812 122.343ZM162.096 127.48C161.355 127.48 160.677 127.348 160.062 127.085C159.457 126.821 158.964 126.45 158.584 125.972L159.74 124.802C159.974 125.153 160.286 125.441 160.677 125.665C161.067 125.889 161.53 126.002 162.067 126.002C162.447 126.002 162.75 125.948 162.974 125.841C163.208 125.724 163.326 125.543 163.326 125.299C163.326 125.143 163.272 125.011 163.165 124.904C163.057 124.787 162.843 124.694 162.521 124.626L161.233 124.363C160.384 124.187 159.779 123.924 159.418 123.572C159.067 123.211 158.891 122.748 158.891 122.182C158.891 121.782 159.008 121.406 159.242 121.055C159.486 120.704 159.847 120.421 160.325 120.206C160.803 119.982 161.399 119.87 162.111 119.87C162.843 119.87 163.477 119.987 164.013 120.221C164.56 120.445 164.989 120.782 165.301 121.231L164.101 122.402C163.887 122.06 163.604 121.802 163.252 121.626C162.911 121.441 162.55 121.348 162.169 121.348C161.896 121.348 161.662 121.377 161.467 121.436C161.272 121.494 161.125 121.577 161.028 121.684C160.93 121.782 160.882 121.909 160.882 122.065C160.882 122.221 160.95 122.358 161.086 122.475C161.223 122.582 161.472 122.675 161.833 122.753L163.326 123.06C164.048 123.206 164.565 123.455 164.877 123.806C165.189 124.148 165.345 124.563 165.345 125.05C165.345 125.519 165.218 125.938 164.965 126.309C164.721 126.67 164.355 126.958 163.867 127.172C163.389 127.377 162.799 127.48 162.096 127.48Z" fill="white"/>
</g>
<defs>
<filter id="filter0_d_116_106" x="-3.57628e-07" y="-3.57628e-07" width="248.789" height="183.665" filterUnits="userSpaceOnUse" color-interpolation-filters="sRGB">
<feFlood flood-opacity="0" result="BackgroundImageFix"/>
<feColorMatrix in="SourceAlpha" type="matrix" values="0 0 0 0 0 0 0 0 0 0 0 0 0 0 0 0 0 0 127 0" result="hardAlpha"/>
<feMorphology radius="1.46346" operator="erode" in="SourceAlpha" result="effect1_dropShadow_116_106"/>
<feOffset/>
<feGaussianBlur stdDeviation="13.537"/>
<feColorMatrix type="matrix" values="0 0 0 0 0.0666667 0 0 0 0 0.0941176 0 0 0 0 0.152941 0 0 0 0.05 0"/>
<feBlend mode="normal" in2="BackgroundImageFix" result="effect1_dropShadow_116_106"/>
<feBlend mode="normal" in="SourceGraphic" in2="effect1_dropShadow_116_106" result="shape"/>
</filter>
<clipPath id="clip0_116_106">
<rect width="29.2693" height="29.2693" fill="white" transform="translate(109.76 53.3314)"/>
</clipPath>
</defs>
</svg>