<svg width="250" height="184" viewBox="0 0 250 184" fill="none" xmlns="http://www.w3.org/2000/svg">
<g filter="url(#filter0_d_116_62)">
<rect x="25.6106" y="25.6106" width="198.299" height="132.444" rx="2.92693" fill="#0379B9"/>
<g clip-path="url(#clip0_116_62)">
<rect x="110.126" y="65.5269" width="17.0737" height="17.0738" fill="#7595FD"/>
<path d="M133.907 56.99C133.099 56.9907 132.323 57.3121 131.752 57.8837C131.18 58.4554 130.859 59.2305 130.858 60.0389C130.858 60.4743 130.953 60.8877 131.119 61.2646L128.735 63.9464C127.925 63.3873 126.964 63.0879 125.98 63.0878C125.077 63.0878 124.243 63.3512 123.518 63.7781L120.744 61.006L120.716 61.0341C120.955 60.5487 121.102 60.0084 121.102 59.4291C121.102 58.7055 120.887 57.9982 120.485 57.3965C120.083 56.7948 119.512 56.3259 118.843 56.049C118.175 55.7721 117.439 55.6996 116.729 55.8408C116.02 55.9819 115.368 56.3304 114.856 56.8421C114.344 57.3537 113.996 58.0057 113.855 58.7154C113.713 59.4251 113.786 60.1607 114.063 60.8292C114.34 61.4978 114.809 62.0692 115.41 62.4712C116.012 62.8732 116.719 63.0878 117.443 63.0878C118.022 63.0878 118.561 62.9415 119.048 62.7024L119.02 62.7305L121.793 65.5025C121.345 66.2465 121.106 67.0976 121.102 67.966C121.102 69.1819 121.565 70.2819 122.303 71.1381L119.16 74.2796C118.808 74.1386 118.432 74.0654 118.053 74.0638C116.372 74.0638 115.004 75.4309 115.004 77.1127C115.004 78.7944 116.372 80.1616 118.053 80.1616C119.733 80.1616 121.102 78.7944 121.102 77.1127C121.102 76.7212 121.021 76.3492 120.886 76.0041L124.347 72.543C124.86 72.7259 125.404 72.8442 125.98 72.8442C128.67 72.8442 130.858 70.6564 130.858 67.966C130.858 67.1904 130.659 66.4672 130.336 65.8147L132.918 62.9085C133.23 63.0158 133.559 63.0878 133.907 63.0878C135.589 63.0878 136.956 61.7207 136.956 60.0389C136.956 58.3572 135.589 56.99 133.907 56.99ZM125.98 70.4051C124.635 70.4051 123.541 69.3112 123.541 67.966C123.541 66.6208 124.635 65.5269 125.98 65.5269C127.325 65.5269 128.419 66.6208 128.419 67.966C128.419 69.3112 127.325 70.4051 125.98 70.4051Z" fill="white"/>
</g>
<rect x="102.808" y="97.2353" width="43.9039" height="1.46346" fill="#E0E3EB"/>
<path d="M98.2732 117.675V127.333H96.2537V117.675H98.2732ZM91.995 117.675V127.333H89.9754V117.675H91.995ZM97.3074 121.641V123.265H90.9852V121.641H97.3074ZM107.468 120.016L104.511 127.787C104.277 128.451 104.014 128.977 103.721 129.368C103.438 129.758 103.106 130.041 102.726 130.216C102.355 130.392 101.911 130.48 101.394 130.48C101.014 130.48 100.662 130.431 100.34 130.334C100.028 130.246 99.7551 130.129 99.521 129.982L99.9454 128.533C100.131 128.68 100.326 128.782 100.531 128.841C100.736 128.909 100.97 128.943 101.233 128.943C101.506 128.943 101.741 128.885 101.936 128.768C102.141 128.651 102.311 128.416 102.448 128.065L102.697 127.436L101.892 125.533L99.6527 120.016H101.877L103.267 124.406L103.648 125.87L104.102 124.319L105.433 120.016H107.468ZM111.259 127.48C110.654 127.48 110.112 127.329 109.634 127.026C109.166 126.724 108.795 126.289 108.522 125.724C108.258 125.158 108.127 124.48 108.127 123.689C108.127 122.88 108.268 122.192 108.551 121.626C108.834 121.05 109.215 120.616 109.693 120.323C110.18 120.021 110.727 119.87 111.332 119.87C111.976 119.87 112.507 120.055 112.927 120.426C113.346 120.797 113.62 121.275 113.746 121.86L113.556 122.094V116.811H115.561V127.333H113.761L113.629 125.109L113.878 125.226C113.81 125.685 113.654 126.085 113.41 126.426C113.166 126.758 112.859 127.016 112.488 127.202C112.117 127.387 111.707 127.48 111.259 127.48ZM111.844 125.943C112.195 125.943 112.498 125.855 112.751 125.68C113.005 125.494 113.2 125.226 113.337 124.875C113.483 124.524 113.556 124.104 113.556 123.616C113.556 123.148 113.488 122.753 113.351 122.431C113.215 122.099 113.02 121.845 112.766 121.67C112.512 121.494 112.215 121.406 111.873 121.406C111.327 121.406 110.898 121.602 110.585 121.992C110.283 122.372 110.132 122.933 110.132 123.675C110.132 124.416 110.283 124.982 110.585 125.372C110.888 125.753 111.307 125.943 111.844 125.943ZM117.668 127.333V120.016H119.409L119.541 121.45C119.736 120.943 120.019 120.553 120.39 120.28C120.77 120.006 121.244 119.87 121.809 119.87C121.975 119.87 122.126 119.884 122.263 119.914C122.4 119.943 122.512 119.982 122.6 120.031L122.366 121.714C122.268 121.675 122.146 121.645 122 121.626C121.863 121.606 121.683 121.597 121.458 121.597C121.165 121.597 120.883 121.67 120.609 121.816C120.336 121.953 120.112 122.167 119.936 122.46C119.761 122.743 119.673 123.104 119.673 123.543V127.333H117.668ZM127.036 119.87C127.777 119.87 128.426 120.021 128.982 120.323C129.548 120.626 129.987 121.06 130.299 121.626C130.621 122.192 130.782 122.875 130.782 123.675C130.782 124.465 130.621 125.148 130.299 125.724C129.987 126.289 129.548 126.724 128.982 127.026C128.426 127.329 127.777 127.48 127.036 127.48C126.304 127.48 125.655 127.329 125.089 127.026C124.523 126.724 124.079 126.289 123.757 125.724C123.445 125.148 123.289 124.465 123.289 123.675C123.289 122.875 123.445 122.192 123.757 121.626C124.079 121.06 124.523 120.626 125.089 120.323C125.655 120.021 126.304 119.87 127.036 119.87ZM127.036 121.362C126.665 121.362 126.348 121.45 126.084 121.626C125.831 121.792 125.636 122.045 125.499 122.387C125.362 122.728 125.294 123.158 125.294 123.675C125.294 124.192 125.362 124.621 125.499 124.963C125.636 125.304 125.831 125.563 126.084 125.738C126.348 125.904 126.665 125.987 127.036 125.987C127.397 125.987 127.704 125.904 127.958 125.738C128.221 125.563 128.421 125.304 128.558 124.963C128.694 124.621 128.762 124.192 128.762 123.675C128.762 123.158 128.694 122.728 128.558 122.387C128.421 122.045 128.221 121.792 127.958 121.626C127.704 121.45 127.397 121.362 127.036 121.362ZM134.435 116.811V125.08C134.435 125.421 134.494 125.66 134.611 125.797C134.728 125.933 134.923 126.002 135.196 126.002C135.362 126.002 135.499 125.992 135.606 125.972C135.713 125.943 135.85 125.904 136.016 125.855L135.84 127.172C135.674 127.27 135.465 127.343 135.211 127.392C134.967 127.45 134.723 127.48 134.479 127.48C133.767 127.48 133.245 127.309 132.913 126.968C132.591 126.616 132.43 126.06 132.43 125.299V116.811H134.435ZM140.47 119.87C141.211 119.87 141.86 120.021 142.416 120.323C142.982 120.626 143.421 121.06 143.733 121.626C144.055 122.192 144.216 122.875 144.216 123.675C144.216 124.465 144.055 125.148 143.733 125.724C143.421 126.289 142.982 126.724 142.416 127.026C141.86 127.329 141.211 127.48 140.47 127.48C139.738 127.48 139.089 127.329 138.523 127.026C137.957 126.724 137.514 126.289 137.192 125.724C136.879 125.148 136.723 124.465 136.723 123.675C136.723 122.875 136.879 122.192 137.192 121.626C137.514 121.06 137.957 120.626 138.523 120.323C139.089 120.021 139.738 119.87 140.47 119.87ZM140.47 121.362C140.099 121.362 139.782 121.45 139.518 121.626C139.265 121.792 139.07 122.045 138.933 122.387C138.796 122.728 138.728 123.158 138.728 123.675C138.728 124.192 138.796 124.621 138.933 124.963C139.07 125.304 139.265 125.563 139.518 125.738C139.782 125.904 140.099 125.987 140.47 125.987C140.831 125.987 141.138 125.904 141.392 125.738C141.655 125.563 141.855 125.304 141.992 124.963C142.128 124.621 142.197 124.192 142.197 123.675C142.197 123.158 142.128 122.728 141.992 122.387C141.855 122.045 141.655 121.792 141.392 121.626C141.138 121.45 140.831 121.362 140.47 121.362ZM152.583 118.275L152.817 119.709C152.778 119.709 152.734 119.709 152.686 119.709C152.647 119.699 152.603 119.694 152.554 119.694C152.105 119.694 151.769 119.797 151.544 120.001C151.32 120.197 151.208 120.47 151.208 120.821L150.388 120.484C150.388 120.094 150.466 119.733 150.622 119.401C150.778 119.06 151.008 118.787 151.31 118.582C151.622 118.377 151.993 118.275 152.422 118.275C152.442 118.275 152.466 118.275 152.495 118.275C152.525 118.275 152.554 118.275 152.583 118.275ZM150.183 125.958C150.973 125.958 151.583 126.128 152.012 126.47C152.442 126.811 152.656 127.29 152.656 127.904C152.656 128.46 152.495 128.929 152.173 129.309C151.851 129.699 151.398 129.992 150.812 130.187C150.237 130.382 149.568 130.48 148.807 130.48C147.549 130.48 146.627 130.304 146.042 129.953C145.466 129.602 145.178 129.143 145.178 128.577C145.178 128.177 145.329 127.841 145.632 127.568C145.944 127.294 146.456 127.143 147.168 127.114L147.095 127.348C146.588 127.26 146.198 127.094 145.924 126.85C145.661 126.597 145.529 126.25 145.529 125.811C145.529 125.363 145.7 124.997 146.042 124.714C146.393 124.421 146.866 124.25 147.461 124.202L148.339 124.611H148.134C147.715 124.641 147.417 124.728 147.242 124.875C147.076 125.011 146.993 125.167 146.993 125.343C146.993 125.548 147.071 125.704 147.227 125.811C147.393 125.909 147.627 125.958 147.929 125.958H150.183ZM148.822 129.104C149.329 129.104 149.744 129.06 150.066 128.972C150.398 128.885 150.642 128.772 150.798 128.636C150.964 128.499 151.047 128.348 151.047 128.182C151.047 127.997 150.973 127.846 150.827 127.729C150.681 127.621 150.417 127.568 150.037 127.568H147.564C147.329 127.568 147.134 127.626 146.978 127.743C146.832 127.86 146.759 128.021 146.759 128.226C146.759 128.499 146.939 128.714 147.3 128.87C147.671 129.026 148.178 129.104 148.822 129.104ZM148.837 119.87C149.52 119.87 150.11 119.972 150.608 120.177C151.115 120.372 151.5 120.655 151.764 121.026C152.037 121.397 152.173 121.841 152.173 122.358C152.173 122.865 152.037 123.304 151.764 123.675C151.5 124.045 151.115 124.333 150.608 124.538C150.11 124.733 149.52 124.831 148.837 124.831C147.754 124.831 146.924 124.611 146.349 124.172C145.783 123.724 145.5 123.119 145.5 122.358C145.5 121.841 145.632 121.397 145.895 121.026C146.168 120.655 146.554 120.372 147.051 120.177C147.549 119.972 148.144 119.87 148.837 119.87ZM148.837 121.128C148.446 121.128 148.125 121.236 147.871 121.45C147.617 121.665 147.49 121.962 147.49 122.343C147.49 122.723 147.617 123.026 147.871 123.25C148.125 123.465 148.446 123.572 148.837 123.572C149.227 123.572 149.544 123.465 149.788 123.25C150.042 123.026 150.168 122.723 150.168 122.343C150.168 121.962 150.042 121.665 149.788 121.45C149.544 121.236 149.227 121.128 148.837 121.128ZM160.747 120.016L157.791 127.787C157.556 128.451 157.293 128.977 157 129.368C156.717 129.758 156.386 130.041 156.005 130.216C155.634 130.392 155.191 130.48 154.673 130.48C154.293 130.48 153.942 130.431 153.62 130.334C153.308 130.246 153.034 130.129 152.8 129.982L153.225 128.533C153.41 128.68 153.605 128.782 153.81 128.841C154.015 128.909 154.249 128.943 154.512 128.943C154.786 128.943 155.02 128.885 155.215 128.768C155.42 128.651 155.591 128.416 155.727 128.065L155.976 127.436L155.171 125.533L152.932 120.016H155.156L156.547 124.406L156.927 125.87L157.381 124.319L158.713 120.016H160.747Z" fill="white"/>
</g>
<defs>
<filter id="filter0_d_116_62" x="-3.57628e-07" y="-3.57628e-07" width="249.521" height="183.665" filterUnits="userSpaceOnUse" color-interpolation-filters="sRGB">
<feFlood flood-opacity="0" result="BackgroundImageFix"/>
<feColorMatrix in="SourceAlpha" type="matrix" values="0 0 0 0 0 0 0 0 0 0 0 0 0 0 0 0 0 0 127 0" result="hardAlpha"/>
<feMorphology radius="1.46346" operator="erode" in="SourceAlpha" result="effect1_dropShadow_116_62"/>
<feOffset/>
<feGaussianBlur stdDeviation="13.537"/>
<feColorMatrix type="matrix" values="0 0 0 0 0.0666667 0 0 0 0 0.0941176 0 0 0 0 0.152941 0 0 0 0.05 0"/>
<feBlend mode="normal" in2="BackgroundImageFix" result="effect1_dropShadow_116_62"/>
<feBlend mode="normal" in="SourceGraphic" in2="effect1_dropShadow_116_62" result="shape"/>
</filter>
<clipPath id="clip0_116_62">
<rect width="29.2693" height="29.2693" fill="white" transform="translate(110.126 53.3314)"/>
</clipPath>
</defs>
</svg>