<svg width="249" height="184" viewBox="0 0 249 184" fill="none" xmlns="http://www.w3.org/2000/svg">
<g filter="url(#filter0_d_116_73)">
<rect x="25.6106" y="25.6106" width="197.568" height="132.444" rx="2.92693" fill="white"/>
<g clip-path="url(#clip0_116_73)">
<rect x="109.76" y="65.5269" width="17.0737" height="17.0738" fill="#7595FD"/>
<path d="M123.175 60.6487H126.834L130.846 56.6242C130.959 56.5099 131.094 56.4191 131.243 56.3572C131.391 56.2953 131.551 56.2634 131.712 56.2634C131.873 56.2634 132.032 56.2953 132.181 56.3572C132.329 56.4191 132.464 56.5099 132.578 56.6242L135.724 59.7828C135.951 60.0113 136.079 60.3204 136.079 60.6426C136.079 60.9648 135.951 61.2739 135.724 61.5024L132.931 64.3074H123.175V66.7465C123.175 67.0699 123.046 67.3801 122.818 67.6088C122.589 67.8375 122.279 67.966 121.955 67.966C121.632 67.966 121.322 67.8375 121.093 67.6088C120.864 67.3801 120.736 67.0699 120.736 66.7465V63.0878C120.736 62.4409 120.993 61.8205 121.45 61.3631C121.908 60.9057 122.528 60.6487 123.175 60.6487ZM115.858 66.7465V71.6247L113.065 74.4175C112.838 74.646 112.71 74.9551 112.71 75.2772C112.71 75.5994 112.838 75.9085 113.065 76.137L116.211 79.2957C116.325 79.41 116.46 79.5007 116.608 79.5626C116.757 79.6245 116.916 79.6564 117.077 79.6564C117.238 79.6564 117.398 79.6245 117.546 79.5626C117.695 79.5007 117.83 79.41 117.943 79.2957L123.175 74.0638H128.053C128.377 74.0638 128.687 73.9353 128.915 73.7066C129.144 73.4779 129.273 73.1677 129.273 72.8442V71.6247H130.492C130.816 71.6247 131.126 71.4962 131.355 71.2675C131.583 71.0388 131.712 70.7286 131.712 70.4051V69.1856H132.931C133.255 69.1856 133.565 69.0571 133.794 68.8284C134.022 68.5997 134.151 68.2895 134.151 67.966V66.7465H125.614V67.966C125.614 68.6129 125.357 69.2333 124.9 69.6907C124.442 70.1481 123.822 70.4051 123.175 70.4051H120.736C120.089 70.4051 119.469 70.1481 119.011 69.6907C118.554 69.2333 118.297 68.6129 118.297 67.966V64.3074L115.858 66.7465Z" fill="#292E3D"/>
</g>
<rect x="102.443" y="97.2353" width="43.9039" height="1.46346" fill="#E0E3EB"/>
<path d="M92.3576 117.528C93.2357 117.528 94.0064 117.679 94.6699 117.982C95.3333 118.284 95.8992 118.733 96.3675 119.328L95.2406 120.631C94.8406 120.123 94.4015 119.753 93.9235 119.519C93.4552 119.275 92.9088 119.153 92.2844 119.153C91.8746 119.153 91.5332 119.206 91.26 119.314C90.9966 119.421 90.8014 119.562 90.6746 119.738C90.5575 119.914 90.499 120.109 90.499 120.323C90.499 120.587 90.6014 120.811 90.8063 120.997C91.0112 121.172 91.3624 121.319 91.86 121.436L93.6601 121.845C94.6162 122.06 95.2991 122.382 95.7089 122.811C96.1284 123.231 96.3382 123.777 96.3382 124.45C96.3382 125.085 96.1723 125.631 95.8406 126.089C95.5089 126.538 95.0455 126.885 94.4503 127.129C93.8552 127.363 93.1722 127.48 92.4015 127.48C91.7283 127.48 91.1088 127.402 90.5429 127.246C89.9868 127.08 89.4892 126.855 89.0501 126.572C88.6111 126.289 88.2452 125.963 87.9525 125.592L89.0941 124.231C89.3184 124.543 89.5965 124.821 89.9282 125.065C90.2599 125.309 90.6356 125.504 91.0551 125.65C91.4844 125.787 91.9332 125.855 92.4015 125.855C92.8015 125.855 93.1381 125.811 93.4113 125.724C93.6942 125.626 93.904 125.494 94.0406 125.328C94.1869 125.153 94.2601 124.943 94.2601 124.699C94.2601 124.446 94.1723 124.231 93.9967 124.055C93.8308 123.87 93.5186 123.728 93.06 123.631L91.099 123.192C90.5331 123.055 90.0453 122.88 89.6355 122.665C89.2355 122.441 88.9282 122.158 88.7136 121.816C88.5087 121.465 88.4062 121.05 88.4062 120.572C88.4062 119.997 88.5623 119.479 88.8745 119.021C89.1867 118.562 89.6355 118.201 90.2209 117.938C90.8161 117.665 91.5283 117.528 92.3576 117.528ZM102.129 122.665C102.129 122.245 102.007 121.919 101.763 121.684C101.529 121.45 101.217 121.333 100.827 121.333C100.466 121.333 100.149 121.426 99.8753 121.611C99.6021 121.797 99.4021 122.104 99.2753 122.533L97.5631 122.006C97.7289 121.362 98.0899 120.845 98.646 120.455C99.2119 120.065 99.968 119.87 100.914 119.87C101.558 119.87 102.119 119.972 102.597 120.177C103.075 120.372 103.446 120.67 103.71 121.07C103.983 121.47 104.119 121.972 104.119 122.577V125.548C104.119 125.919 104.295 126.104 104.646 126.104C104.812 126.104 104.968 126.08 105.115 126.031L104.997 127.275C104.744 127.402 104.427 127.465 104.046 127.465C103.705 127.465 103.397 127.407 103.124 127.29C102.851 127.172 102.636 126.997 102.48 126.763C102.324 126.519 102.246 126.216 102.246 125.855V125.797L102.597 125.738C102.539 126.109 102.378 126.426 102.114 126.689C101.851 126.943 101.529 127.138 101.149 127.275C100.778 127.411 100.392 127.48 99.9924 127.48C99.4948 127.48 99.0655 127.407 98.7046 127.26C98.3436 127.104 98.0655 126.88 97.8704 126.587C97.6752 126.294 97.5777 125.933 97.5777 125.504C97.5777 124.958 97.7533 124.514 98.1045 124.172C98.4558 123.821 98.9582 123.582 99.6119 123.455L102.363 122.899L102.349 124.143L100.592 124.494C100.261 124.563 100.007 124.655 99.8314 124.772C99.6656 124.88 99.5826 125.06 99.5826 125.314C99.5826 125.558 99.6704 125.743 99.8461 125.87C100.031 125.997 100.251 126.06 100.505 126.06C100.709 126.06 100.91 126.036 101.105 125.987C101.3 125.938 101.475 125.86 101.631 125.753C101.788 125.646 101.91 125.499 101.997 125.314C102.085 125.128 102.129 124.904 102.129 124.641V122.665ZM106.362 127.333V120.016H108.162L108.279 122.211L108.03 121.977C108.147 121.499 108.332 121.104 108.586 120.792C108.84 120.48 109.147 120.25 109.508 120.104C109.879 119.948 110.284 119.87 110.723 119.87C111.23 119.87 111.679 119.967 112.069 120.162C112.469 120.358 112.781 120.655 113.006 121.055C113.24 121.445 113.357 121.938 113.357 122.533V127.333H111.352V123.104C111.352 122.48 111.23 122.05 110.986 121.816C110.742 121.572 110.425 121.45 110.035 121.45C109.762 121.45 109.493 121.519 109.23 121.655C108.976 121.782 108.767 121.992 108.601 122.284C108.445 122.577 108.367 122.967 108.367 123.455V127.333H106.362ZM116.432 118.962C116.013 118.962 115.701 118.875 115.496 118.699C115.291 118.514 115.188 118.245 115.188 117.894C115.188 117.533 115.291 117.265 115.496 117.089C115.701 116.904 116.013 116.811 116.432 116.811C116.852 116.811 117.164 116.904 117.369 117.089C117.574 117.265 117.676 117.533 117.676 117.894C117.676 118.245 117.574 118.514 117.369 118.699C117.164 118.875 116.852 118.962 116.432 118.962ZM117.428 120.016V127.333H115.423V120.016H117.428ZM122.143 117.777V124.948C122.143 125.299 122.231 125.558 122.407 125.724C122.592 125.88 122.841 125.958 123.153 125.958C123.397 125.958 123.612 125.924 123.797 125.855C123.982 125.777 124.148 125.675 124.294 125.548L124.616 126.88C124.382 127.065 124.09 127.211 123.738 127.319C123.387 127.426 123.016 127.48 122.626 127.48C122.138 127.48 121.704 127.407 121.324 127.26C120.953 127.114 120.66 126.88 120.446 126.558C120.241 126.236 120.138 125.807 120.138 125.27V118.333L122.143 117.777ZM124.485 120.016V121.509H118.792V120.016H124.485ZM130.084 122.665C130.084 122.245 129.962 121.919 129.718 121.684C129.483 121.45 129.171 121.333 128.781 121.333C128.42 121.333 128.103 121.426 127.83 121.611C127.557 121.797 127.357 122.104 127.23 122.533L125.518 122.006C125.683 121.362 126.044 120.845 126.6 120.455C127.166 120.065 127.922 119.87 128.869 119.87C129.513 119.87 130.074 119.972 130.552 120.177C131.03 120.372 131.401 120.67 131.664 121.07C131.937 121.47 132.074 121.972 132.074 122.577V125.548C132.074 125.919 132.249 126.104 132.601 126.104C132.767 126.104 132.923 126.08 133.069 126.031L132.952 127.275C132.698 127.402 132.381 127.465 132.001 127.465C131.659 127.465 131.352 127.407 131.079 127.29C130.805 127.172 130.591 126.997 130.435 126.763C130.279 126.519 130.201 126.216 130.201 125.855V125.797L130.552 125.738C130.493 126.109 130.332 126.426 130.069 126.689C129.805 126.943 129.483 127.138 129.103 127.275C128.732 127.411 128.347 127.48 127.947 127.48C127.449 127.48 127.02 127.407 126.659 127.26C126.298 127.104 126.02 126.88 125.825 126.587C125.63 126.294 125.532 125.933 125.532 125.504C125.532 124.958 125.708 124.514 126.059 124.172C126.41 123.821 126.913 123.582 127.566 123.455L130.318 122.899L130.303 124.143L128.547 124.494C128.215 124.563 127.961 124.655 127.786 124.772C127.62 124.88 127.537 125.06 127.537 125.314C127.537 125.558 127.625 125.743 127.801 125.87C127.986 125.997 128.205 126.06 128.459 126.06C128.664 126.06 128.864 126.036 129.059 125.987C129.254 125.938 129.43 125.86 129.586 125.753C129.742 125.646 129.864 125.499 129.952 125.314C130.04 125.128 130.084 124.904 130.084 124.641V122.665ZM136.621 117.777V124.948C136.621 125.299 136.708 125.558 136.884 125.724C137.069 125.88 137.318 125.958 137.63 125.958C137.874 125.958 138.089 125.924 138.274 125.855C138.46 125.777 138.626 125.675 138.772 125.548L139.094 126.88C138.86 127.065 138.567 127.211 138.216 127.319C137.865 127.426 137.494 127.48 137.104 127.48C136.616 127.48 136.182 127.407 135.801 127.26C135.43 127.114 135.138 126.88 134.923 126.558C134.718 126.236 134.616 125.807 134.616 125.27V118.333L136.621 117.777ZM138.962 120.016V121.509H133.269V120.016H138.962ZM141.328 118.962C140.909 118.962 140.597 118.875 140.392 118.699C140.187 118.514 140.084 118.245 140.084 117.894C140.084 117.533 140.187 117.265 140.392 117.089C140.597 116.904 140.909 116.811 141.328 116.811C141.748 116.811 142.06 116.904 142.265 117.089C142.47 117.265 142.572 117.533 142.572 117.894C142.572 118.245 142.47 118.514 142.265 118.699C142.06 118.875 141.748 118.962 141.328 118.962ZM142.324 120.016V127.333H140.319V120.016H142.324ZM147.786 119.87C148.527 119.87 149.176 120.021 149.732 120.323C150.298 120.626 150.737 121.06 151.049 121.626C151.371 122.192 151.532 122.875 151.532 123.675C151.532 124.465 151.371 125.148 151.049 125.724C150.737 126.289 150.298 126.724 149.732 127.026C149.176 127.329 148.527 127.48 147.786 127.48C147.054 127.48 146.405 127.329 145.839 127.026C145.273 126.724 144.829 126.289 144.507 125.724C144.195 125.148 144.039 124.465 144.039 123.675C144.039 122.875 144.195 122.192 144.507 121.626C144.829 121.06 145.273 120.626 145.839 120.323C146.405 120.021 147.054 119.87 147.786 119.87ZM147.786 121.362C147.415 121.362 147.098 121.45 146.834 121.626C146.581 121.792 146.386 122.045 146.249 122.387C146.112 122.728 146.044 123.158 146.044 123.675C146.044 124.192 146.112 124.621 146.249 124.963C146.386 125.304 146.581 125.563 146.834 125.738C147.098 125.904 147.415 125.987 147.786 125.987C148.147 125.987 148.454 125.904 148.708 125.738C148.971 125.563 149.171 125.304 149.308 124.963C149.444 124.621 149.512 124.192 149.512 123.675C149.512 123.158 149.444 122.728 149.308 122.387C149.171 122.045 148.971 121.792 148.708 121.626C148.454 121.45 148.147 121.362 147.786 121.362ZM153.21 127.333V120.016H155.01L155.127 122.211L154.878 121.977C154.995 121.499 155.18 121.104 155.434 120.792C155.688 120.48 155.995 120.25 156.356 120.104C156.727 119.948 157.132 119.87 157.571 119.87C158.078 119.87 158.527 119.967 158.917 120.162C159.317 120.358 159.629 120.655 159.854 121.055C160.088 121.445 160.205 121.938 160.205 122.533V127.333H158.2V123.104C158.2 122.48 158.078 122.05 157.834 121.816C157.59 121.572 157.273 121.45 156.883 121.45C156.61 121.45 156.341 121.519 156.078 121.655C155.824 121.782 155.615 121.992 155.449 122.284C155.293 122.577 155.215 122.967 155.215 123.455V127.333H153.21Z" fill="#2947A9"/>
</g>
<defs>
<filter id="filter0_d_116_73" x="-3.57628e-07" y="-3.57628e-07" width="248.789" height="183.665" filterUnits="userSpaceOnUse" color-interpolation-filters="sRGB">
<feFlood flood-opacity="0" result="BackgroundImageFix"/>
<feColorMatrix in="SourceAlpha" type="matrix" values="0 0 0 0 0 0 0 0 0 0 0 0 0 0 0 0 0 0 127 0" result="hardAlpha"/>
<feMorphology radius="1.46346" operator="erode" in="SourceAlpha" result="effect1_dropShadow_116_73"/>
<feOffset/>
<feGaussianBlur stdDeviation="13.537"/>
<feColorMatrix type="matrix" values="0 0 0 0 0.0666667 0 0 0 0 0.0941176 0 0 0 0 0.152941 0 0 0 0.05 0"/>
<feBlend mode="normal" in2="BackgroundImageFix" result="effect1_dropShadow_116_73"/>
<feBlend mode="normal" in="SourceGraphic" in2="effect1_dropShadow_116_73" result="shape"/>
</filter>
<clipPath id="clip0_116_73">
<rect width="29.2693" height="29.2693" fill="white" transform="translate(109.76 53.3314)"/>
</clipPath>
</defs>
</svg>