<svg width="250" height="184" viewBox="0 0 250 184" fill="none" xmlns="http://www.w3.org/2000/svg">
<g filter="url(#filter0_d_116_84)">
<rect x="25.6107" y="25.6106" width="198.299" height="132.444" rx="2.92693" fill="#0379B9"/>
<g clip-path="url(#clip0_116_84)">
<rect x="110.126" y="65.5269" width="17.0737" height="17.0738" fill="#7595FD"/>
<path d="M132.078 72.8442H129.639V71.6247H119.882V72.8442H117.443V71.6247H112.565V77.7224H136.956V71.6247H132.078V72.8442ZM134.517 63.0878H130.858V60.6487C130.858 59.3072 129.761 58.2096 128.419 58.2096H121.102C119.76 58.2096 118.663 59.3072 118.663 60.6487V63.0878H115.004C113.662 63.0878 112.565 64.1854 112.565 65.5269V70.4051H117.443V67.966H119.882V70.4051H129.639V67.966H132.078V70.4051H136.956V65.5269C136.956 64.1854 135.858 63.0878 134.517 63.0878ZM128.419 63.0878H121.102V60.6487H128.419V63.0878Z" fill="white"/>
</g>
<rect x="102.808" y="97.2353" width="43.9039" height="1.46346" fill="#E0E3EB"/>
<path d="M37.6249 117.675C38.7176 117.675 39.5762 117.938 40.2006 118.465C40.825 118.992 41.1372 119.699 41.1372 120.587C41.1372 121.533 40.825 122.26 40.2006 122.767C39.5762 123.265 38.7225 123.514 37.6395 123.514L37.4347 123.631H35.3565V127.333H33.3662V117.675H37.6249ZM37.3908 122.094C37.9566 122.094 38.3762 121.982 38.6493 121.758C38.9323 121.523 39.0737 121.167 39.0737 120.689C39.0737 120.211 38.9323 119.86 38.6493 119.636C38.3762 119.401 37.9566 119.284 37.3908 119.284H35.3565V122.094H37.3908ZM38.5762 122.519L41.708 127.333H39.4396L36.8493 123.104L38.5762 122.519ZM46.3021 119.87C47.0436 119.87 47.6924 120.021 48.2485 120.323C48.8144 120.626 49.2534 121.06 49.5656 121.626C49.8876 122.192 50.0486 122.875 50.0486 123.675C50.0486 124.465 49.8876 125.148 49.5656 125.724C49.2534 126.289 48.8144 126.724 48.2485 127.026C47.6924 127.329 47.0436 127.48 46.3021 127.48C45.5704 127.48 44.9216 127.329 44.3557 127.026C43.7898 126.724 43.3459 126.289 43.024 125.724C42.7117 125.148 42.5556 124.465 42.5556 123.675C42.5556 122.875 42.7117 122.192 43.024 121.626C43.3459 121.06 43.7898 120.626 44.3557 120.323C44.9216 120.021 45.5704 119.87 46.3021 119.87ZM46.3021 121.362C45.9314 121.362 45.6143 121.45 45.3509 121.626C45.0972 121.792 44.9021 122.045 44.7655 122.387C44.6289 122.728 44.5606 123.158 44.5606 123.675C44.5606 124.192 44.6289 124.621 44.7655 124.963C44.9021 125.304 45.0972 125.563 45.3509 125.738C45.6143 125.904 45.9314 125.987 46.3021 125.987C46.6631 125.987 46.9704 125.904 47.2241 125.738C47.4875 125.563 47.6875 125.304 47.8241 124.963C47.9607 124.621 48.029 124.192 48.029 123.675C48.029 123.158 47.9607 122.728 47.8241 122.387C47.6875 122.045 47.4875 121.792 47.2241 121.626C46.9704 121.45 46.6631 121.362 46.3021 121.362ZM55.8542 122.665C55.8542 122.245 55.7322 121.919 55.4883 121.684C55.2542 121.45 54.942 121.333 54.5517 121.333C54.1907 121.333 53.8736 121.426 53.6005 121.611C53.3273 121.797 53.1273 122.104 53.0004 122.533L51.2882 122.006C51.454 121.362 51.815 120.845 52.3711 120.455C52.937 120.065 53.6931 119.87 54.6395 119.87C55.2834 119.87 55.8444 119.972 56.3225 120.177C56.8006 120.372 57.1713 120.67 57.4347 121.07C57.7079 121.47 57.8445 121.972 57.8445 122.577V125.548C57.8445 125.919 58.0201 126.104 58.3713 126.104C58.5372 126.104 58.6933 126.08 58.8397 126.031L58.7226 127.275C58.4689 127.402 58.1518 127.465 57.7713 127.465C57.4299 127.465 57.1225 127.407 56.8493 127.29C56.5762 127.172 56.3615 126.997 56.2054 126.763C56.0493 126.519 55.9713 126.216 55.9713 125.855V125.797L56.3225 125.738C56.264 126.109 56.103 126.426 55.8396 126.689C55.5761 126.943 55.2542 127.138 54.8737 127.275C54.5029 127.411 54.1175 127.48 53.7175 127.48C53.22 127.48 52.7907 127.407 52.4297 127.26C52.0687 127.104 51.7906 126.88 51.5955 126.587C51.4004 126.294 51.3028 125.933 51.3028 125.504C51.3028 124.958 51.4784 124.514 51.8297 124.172C52.1809 123.821 52.6833 123.582 53.337 123.455L56.0883 122.899L56.0737 124.143L54.3176 124.494C53.9858 124.563 53.7322 124.655 53.5566 124.772C53.3907 124.88 53.3078 125.06 53.3078 125.314C53.3078 125.558 53.3956 125.743 53.5712 125.87C53.7566 125.997 53.9761 126.06 54.2297 126.06C54.4346 126.06 54.6346 126.036 54.8298 125.987C55.0249 125.938 55.2005 125.86 55.3566 125.753C55.5127 125.646 55.6347 125.499 55.7225 125.314C55.8103 125.128 55.8542 124.904 55.8542 124.641V122.665ZM62.8242 127.48C62.2193 127.48 61.6778 127.329 61.1997 127.026C60.7314 126.724 60.3607 126.289 60.0875 125.724C59.8241 125.158 59.6924 124.48 59.6924 123.689C59.6924 122.88 59.8338 122.192 60.1168 121.626C60.3997 121.05 60.7802 120.616 61.2583 120.323C61.7461 120.021 62.2924 119.87 62.8973 119.87C63.5413 119.87 64.073 120.055 64.4925 120.426C64.912 120.797 65.1852 121.275 65.3121 121.86L65.1218 122.094V116.811H67.1268V127.333H65.3267L65.195 125.109L65.4438 125.226C65.3755 125.685 65.2194 126.085 64.9755 126.426C64.7315 126.758 64.4242 127.016 64.0535 127.202C63.6827 127.387 63.273 127.48 62.8242 127.48ZM63.4096 125.943C63.7608 125.943 64.0632 125.855 64.3169 125.68C64.5706 125.494 64.7657 125.226 64.9023 124.875C65.0486 124.524 65.1218 124.104 65.1218 123.616C65.1218 123.148 65.0535 122.753 64.9169 122.431C64.7803 122.099 64.5852 121.845 64.3315 121.67C64.0779 121.494 63.7803 121.406 63.4388 121.406C62.8925 121.406 62.4632 121.602 62.151 121.992C61.8485 122.372 61.6973 122.933 61.6973 123.675C61.6973 124.416 61.8485 124.982 62.151 125.372C62.4534 125.753 62.8729 125.943 63.4096 125.943ZM72.1604 127.48C71.4189 127.48 70.7408 127.348 70.1262 127.085C69.5213 126.821 69.0286 126.45 68.6481 125.972L69.8042 124.802C70.0384 125.153 70.3506 125.441 70.7408 125.665C71.1311 125.889 71.5945 126.002 72.1311 126.002C72.5116 126.002 72.8141 125.948 73.0385 125.841C73.2726 125.724 73.3897 125.543 73.3897 125.299C73.3897 125.143 73.336 125.011 73.2287 124.904C73.1214 124.787 72.9068 124.694 72.5848 124.626L71.2969 124.363C70.4481 124.187 69.8432 123.924 69.4822 123.572C69.131 123.211 68.9554 122.748 68.9554 122.182C68.9554 121.782 69.0725 121.406 69.3066 121.055C69.5505 120.704 69.9115 120.421 70.3896 120.206C70.8677 119.982 71.4628 119.87 72.175 119.87C72.9068 119.87 73.5409 119.987 74.0775 120.221C74.6239 120.445 75.0532 120.782 75.3654 121.231L74.1653 122.402C73.9507 122.06 73.6678 121.802 73.3165 121.626C72.975 121.441 72.6141 121.348 72.2336 121.348C71.9604 121.348 71.7262 121.377 71.5311 121.436C71.336 121.494 71.1896 121.577 71.0921 121.684C70.9945 121.782 70.9457 121.909 70.9457 122.065C70.9457 122.221 71.014 122.358 71.1506 122.475C71.2872 122.582 71.536 122.675 71.897 122.753L73.3897 123.06C74.1117 123.206 74.6288 123.455 74.941 123.806C75.2532 124.148 75.4093 124.563 75.4093 125.05C75.4093 125.519 75.2824 125.938 75.0288 126.309C74.7849 126.67 74.419 126.958 73.9312 127.172C73.4531 127.377 72.8628 127.48 72.1604 127.48ZM85.6523 122.665C85.6523 122.245 85.5303 121.919 85.2864 121.684C85.0522 121.45 84.74 121.333 84.3498 121.333C83.9888 121.333 83.6717 121.426 83.3985 121.611C83.1254 121.797 82.9253 122.104 82.7985 122.533L81.0863 122.006C81.2521 121.362 81.6131 120.845 82.1692 120.455C82.7351 120.065 83.4912 119.87 84.4376 119.87C85.0815 119.87 85.6425 119.972 86.1206 120.177C86.5986 120.372 86.9694 120.67 87.2328 121.07C87.506 121.47 87.6426 121.972 87.6426 122.577V125.548C87.6426 125.919 87.8182 126.104 88.1694 126.104C88.3353 126.104 88.4914 126.08 88.6377 126.031L88.5207 127.275C88.267 127.402 87.9499 127.465 87.5694 127.465C87.2279 127.465 86.9206 127.407 86.6474 127.29C86.3742 127.172 86.1596 126.997 86.0035 126.763C85.8474 126.519 85.7693 126.216 85.7693 125.855V125.797L86.1206 125.738C86.062 126.109 85.9011 126.426 85.6376 126.689C85.3742 126.943 85.0522 127.138 84.6717 127.275C84.301 127.411 83.9156 127.48 83.5156 127.48C83.018 127.48 82.5887 127.407 82.2278 127.26C81.8668 127.104 81.5887 126.88 81.3936 126.587C81.1985 126.294 81.1009 125.933 81.1009 125.504C81.1009 124.958 81.2765 124.514 81.6277 124.172C81.979 123.821 82.4814 123.582 83.1351 123.455L85.8864 122.899L85.8718 124.143L84.1156 124.494C83.7839 124.563 83.5302 124.655 83.3546 124.772C83.1888 124.88 83.1058 125.06 83.1058 125.314C83.1058 125.558 83.1936 125.743 83.3693 125.87C83.5546 125.997 83.7742 126.06 84.0278 126.06C84.2327 126.06 84.4327 126.036 84.6278 125.987C84.823 125.938 84.9986 125.86 85.1547 125.753C85.3108 125.646 85.4327 125.499 85.5206 125.314C85.6084 125.128 85.6523 124.904 85.6523 124.641V122.665ZM89.8849 127.333V120.016H91.6849L91.802 122.211L91.5532 121.977C91.6703 121.499 91.8557 121.104 92.1093 120.792C92.363 120.48 92.6703 120.25 93.0313 120.104C93.4021 119.948 93.807 119.87 94.246 119.87C94.7533 119.87 95.2021 119.967 95.5924 120.162C95.9924 120.358 96.3046 120.655 96.529 121.055C96.7632 121.445 96.8802 121.938 96.8802 122.533V127.333H94.8753V123.104C94.8753 122.48 94.7533 122.05 94.5094 121.816C94.2655 121.572 93.9484 121.45 93.5582 121.45C93.285 121.45 93.0167 121.519 92.7533 121.655C92.4996 121.782 92.2898 121.992 92.124 122.284C91.9679 122.577 91.8898 122.967 91.8898 123.455V127.333H89.8849ZM101.712 127.48C101.107 127.48 100.565 127.329 100.087 127.026C99.619 126.724 99.2482 126.289 98.9751 125.724C98.7116 125.158 98.5799 124.48 98.5799 123.689C98.5799 122.88 98.7214 122.192 99.0043 121.626C99.2873 121.05 99.6678 120.616 100.146 120.323C100.634 120.021 101.18 119.87 101.785 119.87C102.429 119.87 102.961 120.055 103.38 120.426C103.8 120.797 104.073 121.275 104.2 121.86L104.009 122.094V116.811H106.014V127.333H104.214L104.083 125.109L104.331 125.226C104.263 125.685 104.107 126.085 103.863 126.426C103.619 126.758 103.312 127.016 102.941 127.202C102.57 127.387 102.161 127.48 101.712 127.48ZM102.297 125.943C102.648 125.943 102.951 125.855 103.204 125.68C103.458 125.494 103.653 125.226 103.79 124.875C103.936 124.524 104.009 124.104 104.009 123.616C104.009 123.148 103.941 122.753 103.804 122.431C103.668 122.099 103.473 121.845 103.219 121.67C102.965 121.494 102.668 121.406 102.326 121.406C101.78 121.406 101.351 121.602 101.039 121.992C100.736 122.372 100.585 122.933 100.585 123.675C100.585 124.416 100.736 124.982 101.039 125.372C101.341 125.753 101.761 125.943 102.297 125.943ZM120.138 117.675V119.299H116.904V127.333H114.885V119.299H111.636V117.675H120.138ZM120.626 127.333V120.016H122.368L122.499 121.45C122.695 120.943 122.978 120.553 123.348 120.28C123.729 120.006 124.202 119.87 124.768 119.87C124.934 119.87 125.085 119.884 125.221 119.914C125.358 119.943 125.47 119.982 125.558 120.031L125.324 121.714C125.226 121.675 125.104 121.645 124.958 121.626C124.821 121.606 124.641 121.597 124.417 121.597C124.124 121.597 123.841 121.67 123.568 121.816C123.295 121.953 123.07 122.167 122.895 122.46C122.719 122.743 122.631 123.104 122.631 123.543V127.333H120.626ZM130.842 122.665C130.842 122.245 130.72 121.919 130.477 121.684C130.242 121.45 129.93 121.333 129.54 121.333C129.179 121.333 128.862 121.426 128.589 121.611C128.316 121.797 128.116 122.104 127.989 122.533L126.276 122.006C126.442 121.362 126.803 120.845 127.359 120.455C127.925 120.065 128.681 119.87 129.628 119.87C130.272 119.87 130.833 119.972 131.311 120.177C131.789 120.372 132.16 120.67 132.423 121.07C132.696 121.47 132.833 121.972 132.833 122.577V125.548C132.833 125.919 133.008 126.104 133.36 126.104C133.525 126.104 133.682 126.08 133.828 126.031L133.711 127.275C133.457 127.402 133.14 127.465 132.76 127.465C132.418 127.465 132.111 127.407 131.838 127.29C131.564 127.172 131.35 126.997 131.194 126.763C131.038 126.519 130.96 126.216 130.96 125.855V125.797L131.311 125.738C131.252 126.109 131.091 126.426 130.828 126.689C130.564 126.943 130.242 127.138 129.862 127.275C129.491 127.411 129.106 127.48 128.706 127.48C128.208 127.48 127.779 127.407 127.418 127.26C127.057 127.104 126.779 126.88 126.584 126.587C126.389 126.294 126.291 125.933 126.291 125.504C126.291 124.958 126.467 124.514 126.818 124.172C127.169 123.821 127.672 123.582 128.325 123.455L131.077 122.899L131.062 124.143L129.306 124.494C128.974 124.563 128.72 124.655 128.545 124.772C128.379 124.88 128.296 125.06 128.296 125.314C128.296 125.558 128.384 125.743 128.559 125.87C128.745 125.997 128.964 126.06 129.218 126.06C129.423 126.06 129.623 126.036 129.818 125.987C130.013 125.938 130.189 125.86 130.345 125.753C130.501 125.646 130.623 125.499 130.711 125.314C130.799 125.128 130.842 124.904 130.842 124.641V122.665ZM135.075 127.333V120.016H136.875L136.992 122.211L136.743 121.977C136.86 121.499 137.046 121.104 137.3 120.792C137.553 120.48 137.861 120.25 138.222 120.104C138.592 119.948 138.997 119.87 139.436 119.87C139.944 119.87 140.392 119.967 140.783 120.162C141.183 120.358 141.495 120.655 141.719 121.055C141.953 121.445 142.07 121.938 142.07 122.533V127.333H140.065V123.104C140.065 122.48 139.944 122.05 139.7 121.816C139.456 121.572 139.139 121.45 138.748 121.45C138.475 121.45 138.207 121.519 137.943 121.655C137.69 121.782 137.48 121.992 137.314 122.284C137.158 122.577 137.08 122.967 137.08 123.455V127.333H135.075ZM147.063 127.48C146.321 127.48 145.643 127.348 145.029 127.085C144.424 126.821 143.931 126.45 143.551 125.972L144.707 124.802C144.941 125.153 145.253 125.441 145.643 125.665C146.034 125.889 146.497 126.002 147.034 126.002C147.414 126.002 147.717 125.948 147.941 125.841C148.175 125.724 148.292 125.543 148.292 125.299C148.292 125.143 148.239 125.011 148.131 124.904C148.024 124.787 147.809 124.694 147.487 124.626L146.199 124.363C145.351 124.187 144.746 123.924 144.385 123.572C144.034 123.211 143.858 122.748 143.858 122.182C143.858 121.782 143.975 121.406 144.209 121.055C144.453 120.704 144.814 120.421 145.292 120.206C145.77 119.982 146.365 119.87 147.078 119.87C147.809 119.87 148.443 119.987 148.98 120.221C149.526 120.445 149.956 120.782 150.268 121.231L149.068 122.402C148.853 122.06 148.57 121.802 148.219 121.626C147.878 121.441 147.517 121.348 147.136 121.348C146.863 121.348 146.629 121.377 146.434 121.436C146.238 121.494 146.092 121.577 145.995 121.684C145.897 121.782 145.848 121.909 145.848 122.065C145.848 122.221 145.917 122.358 146.053 122.475C146.19 122.582 146.438 122.675 146.799 122.753L148.292 123.06C149.014 123.206 149.531 123.455 149.843 123.806C150.156 124.148 150.312 124.563 150.312 125.05C150.312 125.519 150.185 125.938 149.931 126.309C149.687 126.67 149.322 126.958 148.834 127.172C148.356 127.377 147.765 127.48 147.063 127.48ZM151.911 130.407V120.016H153.711L153.842 122.343L153.594 122.08C153.681 121.65 153.842 121.27 154.077 120.938C154.32 120.606 154.628 120.348 154.999 120.162C155.369 119.967 155.784 119.87 156.242 119.87C156.838 119.87 157.369 120.021 157.838 120.323C158.306 120.626 158.672 121.06 158.935 121.626C159.208 122.182 159.345 122.86 159.345 123.66C159.345 124.46 159.208 125.148 158.935 125.724C158.662 126.289 158.286 126.724 157.808 127.026C157.34 127.329 156.803 127.48 156.199 127.48C155.555 127.48 155.018 127.299 154.589 126.938C154.169 126.577 153.881 126.124 153.725 125.577L153.916 125.27V130.407H151.911ZM155.613 125.943C156.15 125.943 156.569 125.753 156.872 125.372C157.184 124.982 157.34 124.416 157.34 123.675C157.34 122.933 157.189 122.372 156.886 121.992C156.594 121.602 156.179 121.406 155.642 121.406C155.301 121.406 154.999 121.499 154.735 121.684C154.481 121.86 154.281 122.119 154.135 122.46C153.989 122.792 153.916 123.197 153.916 123.675C153.916 124.143 153.984 124.548 154.12 124.889C154.257 125.231 154.452 125.494 154.706 125.68C154.969 125.855 155.272 125.943 155.613 125.943ZM164.423 119.87C165.164 119.87 165.813 120.021 166.369 120.323C166.935 120.626 167.374 121.06 167.686 121.626C168.008 122.192 168.169 122.875 168.169 123.675C168.169 124.465 168.008 125.148 167.686 125.724C167.374 126.289 166.935 126.724 166.369 127.026C165.813 127.329 165.164 127.48 164.423 127.48C163.691 127.48 163.042 127.329 162.476 127.026C161.91 126.724 161.466 126.289 161.144 125.724C160.832 125.148 160.676 124.465 160.676 123.675C160.676 122.875 160.832 122.192 161.144 121.626C161.466 121.06 161.91 120.626 162.476 120.323C163.042 120.021 163.691 119.87 164.423 119.87ZM164.423 121.362C164.052 121.362 163.735 121.45 163.471 121.626C163.218 121.792 163.023 122.045 162.886 122.387C162.749 122.728 162.681 123.158 162.681 123.675C162.681 124.192 162.749 124.621 162.886 124.963C163.023 125.304 163.218 125.563 163.471 125.738C163.735 125.904 164.052 125.987 164.423 125.987C164.784 125.987 165.091 125.904 165.345 125.738C165.608 125.563 165.808 125.304 165.945 124.963C166.081 124.621 166.149 124.192 166.149 123.675C166.149 123.158 166.081 122.728 165.945 122.387C165.808 122.045 165.608 121.792 165.345 121.626C165.091 121.45 164.784 121.362 164.423 121.362ZM169.847 127.333V120.016H171.588L171.72 121.45C171.915 120.943 172.198 120.553 172.569 120.28C172.949 120.006 173.422 119.87 173.988 119.87C174.154 119.87 174.305 119.884 174.442 119.914C174.579 119.943 174.691 119.982 174.779 120.031L174.544 121.714C174.447 121.675 174.325 121.645 174.178 121.626C174.042 121.606 173.861 121.597 173.637 121.597C173.344 121.597 173.061 121.67 172.788 121.816C172.515 121.953 172.291 122.167 172.115 122.46C171.939 122.743 171.852 123.104 171.852 123.543V127.333H169.847ZM178.339 117.777V124.948C178.339 125.299 178.427 125.558 178.603 125.724C178.788 125.88 179.037 125.958 179.349 125.958C179.593 125.958 179.808 125.924 179.993 125.855C180.179 125.777 180.344 125.675 180.491 125.548L180.813 126.88C180.579 127.065 180.286 127.211 179.935 127.319C179.583 127.426 179.213 127.48 178.822 127.48C178.335 127.48 177.9 127.407 177.52 127.26C177.149 127.114 176.856 126.88 176.642 126.558C176.437 126.236 176.334 125.807 176.334 125.27V118.333L178.339 117.777ZM180.681 120.016V121.509H174.988V120.016H180.681ZM186.28 122.665C186.28 122.245 186.158 121.919 185.914 121.684C185.68 121.45 185.368 121.333 184.977 121.333C184.616 121.333 184.299 121.426 184.026 121.611C183.753 121.797 183.553 122.104 183.426 122.533L181.714 122.006C181.88 121.362 182.241 120.845 182.797 120.455C183.363 120.065 184.119 119.87 185.065 119.87C185.709 119.87 186.27 119.972 186.748 120.177C187.226 120.372 187.597 120.67 187.86 121.07C188.133 121.47 188.27 121.972 188.27 122.577V125.548C188.27 125.919 188.446 126.104 188.797 126.104C188.963 126.104 189.119 126.08 189.265 126.031L189.148 127.275C188.894 127.402 188.577 127.465 188.197 127.465C187.855 127.465 187.548 127.407 187.275 127.29C187.002 127.172 186.787 126.997 186.631 126.763C186.475 126.519 186.397 126.216 186.397 125.855V125.797L186.748 125.738C186.689 126.109 186.529 126.426 186.265 126.689C186.002 126.943 185.68 127.138 185.299 127.275C184.928 127.411 184.543 127.48 184.143 127.48C183.645 127.48 183.216 127.407 182.855 127.26C182.494 127.104 182.216 126.88 182.021 126.587C181.826 126.294 181.728 125.933 181.728 125.504C181.728 124.958 181.904 124.514 182.255 124.172C182.606 123.821 183.109 123.582 183.763 123.455L186.514 122.899L186.499 124.143L184.743 124.494C184.411 124.563 184.158 124.655 183.982 124.772C183.816 124.88 183.733 125.06 183.733 125.314C183.733 125.558 183.821 125.743 183.997 125.87C184.182 125.997 184.402 126.06 184.655 126.06C184.86 126.06 185.06 126.036 185.255 125.987C185.45 125.938 185.626 125.86 185.782 125.753C185.938 125.646 186.06 125.499 186.148 125.314C186.236 125.128 186.28 124.904 186.28 124.641V122.665ZM192.817 117.777V124.948C192.817 125.299 192.905 125.558 193.08 125.724C193.266 125.88 193.514 125.958 193.827 125.958C194.071 125.958 194.285 125.924 194.471 125.855C194.656 125.777 194.822 125.675 194.968 125.548L195.29 126.88C195.056 127.065 194.763 127.211 194.412 127.319C194.061 127.426 193.69 127.48 193.3 127.48C192.812 127.48 192.378 127.407 191.997 127.26C191.627 127.114 191.334 126.88 191.119 126.558C190.914 126.236 190.812 125.807 190.812 125.27V118.333L192.817 117.777ZM195.158 120.016V121.509H189.466V120.016H195.158ZM197.525 118.962C197.105 118.962 196.793 118.875 196.588 118.699C196.383 118.514 196.281 118.245 196.281 117.894C196.281 117.533 196.383 117.265 196.588 117.089C196.793 116.904 197.105 116.811 197.525 116.811C197.944 116.811 198.256 116.904 198.461 117.089C198.666 117.265 198.769 117.533 198.769 117.894C198.769 118.245 198.666 118.514 198.461 118.699C198.256 118.875 197.944 118.962 197.525 118.962ZM198.52 120.016V127.333H196.515V120.016H198.52ZM203.982 119.87C204.723 119.87 205.372 120.021 205.928 120.323C206.494 120.626 206.933 121.06 207.245 121.626C207.567 122.192 207.728 122.875 207.728 123.675C207.728 124.465 207.567 125.148 207.245 125.724C206.933 126.289 206.494 126.724 205.928 127.026C205.372 127.329 204.723 127.48 203.982 127.48C203.25 127.48 202.601 127.329 202.035 127.026C201.47 126.724 201.026 126.289 200.704 125.724C200.391 125.148 200.235 124.465 200.235 123.675C200.235 122.875 200.391 122.192 200.704 121.626C201.026 121.06 201.47 120.626 202.035 120.323C202.601 120.021 203.25 119.87 203.982 119.87ZM203.982 121.362C203.611 121.362 203.294 121.45 203.031 121.626C202.777 121.792 202.582 122.045 202.445 122.387C202.309 122.728 202.24 123.158 202.24 123.675C202.24 124.192 202.309 124.621 202.445 124.963C202.582 125.304 202.777 125.563 203.031 125.738C203.294 125.904 203.611 125.987 203.982 125.987C204.343 125.987 204.65 125.904 204.904 125.738C205.167 125.563 205.367 125.304 205.504 124.963C205.64 124.621 205.709 124.192 205.709 123.675C205.709 123.158 205.64 122.728 205.504 122.387C205.367 122.045 205.167 121.792 204.904 121.626C204.65 121.45 204.343 121.362 203.982 121.362ZM209.406 127.333V120.016H211.206L211.323 122.211L211.074 121.977C211.191 121.499 211.377 121.104 211.63 120.792C211.884 120.48 212.191 120.25 212.552 120.104C212.923 119.948 213.328 119.87 213.767 119.87C214.274 119.87 214.723 119.967 215.113 120.162C215.513 120.358 215.826 120.655 216.05 121.055C216.284 121.445 216.401 121.938 216.401 122.533V127.333H214.396V123.104C214.396 122.48 214.274 122.05 214.03 121.816C213.787 121.572 213.469 121.45 213.079 121.45C212.806 121.45 212.538 121.519 212.274 121.655C212.021 121.782 211.811 121.992 211.645 122.284C211.489 122.577 211.411 122.967 211.411 123.455V127.333H209.406Z" fill="white"/>
</g>
<defs>
<filter id="filter0_d_116_84" x="3.016e-05" y="-3.57628e-07" width="249.521" height="183.665" filterUnits="userSpaceOnUse" color-interpolation-filters="sRGB">
<feFlood flood-opacity="0" result="BackgroundImageFix"/>
<feColorMatrix in="SourceAlpha" type="matrix" values="0 0 0 0 0 0 0 0 0 0 0 0 0 0 0 0 0 0 127 0" result="hardAlpha"/>
<feMorphology radius="1.46346" operator="erode" in="SourceAlpha" result="effect1_dropShadow_116_84"/>
<feOffset/>
<feGaussianBlur stdDeviation="13.537"/>
<feColorMatrix type="matrix" values="0 0 0 0 0.0666667 0 0 0 0 0.0941176 0 0 0 0 0.152941 0 0 0 0.05 0"/>
<feBlend mode="normal" in2="BackgroundImageFix" result="effect1_dropShadow_116_84"/>
<feBlend mode="normal" in="SourceGraphic" in2="effect1_dropShadow_116_84" result="shape"/>
</filter>
<clipPath id="clip0_116_84">
<rect width="29.2693" height="29.2693" fill="white" transform="translate(110.126 53.3314)"/>
</clipPath>
</defs>
</svg>