<svg width="250" height="184" viewBox="0 0 250 184" fill="none" xmlns="http://www.w3.org/2000/svg">
<g filter="url(#filter0_d_116_95)">
<rect x="25.6106" y="25.6106" width="198.299" height="132.444" rx="2.92693" fill="white"/>
<g clip-path="url(#clip0_116_95)">
<rect x="110.126" y="65.5269" width="17.0737" height="17.0738" fill="#7595FD"/>
<path d="M117.882 76.2346L118.187 78.942L120.163 77.0639L123.541 67.7953C122.711 67.5879 121.98 67.1733 121.382 66.6001L117.882 76.2346ZM128.139 66.6001C127.541 67.1733 126.797 67.5879 125.98 67.7953L129.358 77.0639L131.334 78.942L131.651 76.2346L128.139 66.6001ZM128.346 63.8195C128.712 61.917 127.614 60.234 125.98 59.6486V58.2096C125.98 57.5388 125.431 56.99 124.76 56.99C124.09 56.99 123.541 57.5388 123.541 58.2096V59.6486C122.126 60.1609 121.102 61.5024 121.102 63.0878C121.102 65.3318 123.126 67.1123 125.443 66.6855C126.882 66.4172 128.065 65.2586 128.346 63.8195ZM124.76 64.3073C124.09 64.3073 123.541 63.7585 123.541 63.0878C123.541 62.417 124.09 61.8682 124.76 61.8682C125.431 61.8682 125.98 62.417 125.98 63.0878C125.98 63.7585 125.431 64.3073 124.76 64.3073Z" fill="#292E3D"/>
</g>
<rect x="102.808" y="97.2353" width="43.9039" height="1.46346" fill="#E0E3EB"/>
<path d="M53.8625 117.675C54.604 117.675 55.2382 117.801 55.765 118.055C56.2919 118.299 56.6968 118.655 56.9797 119.123C57.2724 119.582 57.4187 120.138 57.4187 120.792C57.4187 121.445 57.2724 122.006 56.9797 122.475C56.6968 122.933 56.2919 123.289 55.765 123.543C55.2382 123.787 54.604 123.909 53.8625 123.909H51.8283V127.333H49.8087V117.675H53.8625ZM53.5552 122.314C54.1601 122.314 54.6138 122.187 54.9162 121.933C55.2187 121.67 55.3699 121.289 55.3699 120.792C55.3699 120.284 55.2187 119.904 54.9162 119.65C54.6138 119.397 54.1601 119.27 53.5552 119.27H51.8283V122.314H53.5552ZM62.2158 119.87C62.9573 119.87 63.6061 120.021 64.1622 120.323C64.7281 120.626 65.1671 121.06 65.4794 121.626C65.8013 122.192 65.9623 122.875 65.9623 123.675C65.9623 124.465 65.8013 125.148 65.4794 125.724C65.1671 126.289 64.7281 126.724 64.1622 127.026C63.6061 127.329 62.9573 127.48 62.2158 127.48C61.4841 127.48 60.8353 127.329 60.2694 127.026C59.7035 126.724 59.2596 126.289 58.9377 125.724C58.6255 125.148 58.4694 124.465 58.4694 123.675C58.4694 122.875 58.6255 122.192 58.9377 121.626C59.2596 121.06 59.7035 120.626 60.2694 120.323C60.8353 120.021 61.4841 119.87 62.2158 119.87ZM62.2158 121.362C61.8451 121.362 61.528 121.45 61.2646 121.626C61.0109 121.792 60.8158 122.045 60.6792 122.387C60.5426 122.728 60.4743 123.158 60.4743 123.675C60.4743 124.192 60.5426 124.621 60.6792 124.963C60.8158 125.304 61.0109 125.563 61.2646 125.738C61.528 125.904 61.8451 125.987 62.2158 125.987C62.5768 125.987 62.8841 125.904 63.1378 125.738C63.4012 125.563 63.6012 125.304 63.7378 124.963C63.8744 124.621 63.9427 124.192 63.9427 123.675C63.9427 123.158 63.8744 122.728 63.7378 122.387C63.6012 122.045 63.4012 121.792 63.1378 121.626C62.8841 121.45 62.5768 121.362 62.2158 121.362ZM67.6399 127.333V120.016H69.3814L69.5131 121.45C69.7083 120.943 69.9912 120.553 70.3619 120.28C70.7424 120.006 71.2156 119.87 71.7815 119.87C71.9474 119.87 72.0986 119.884 72.2352 119.914C72.3718 119.943 72.484 119.982 72.5718 120.031L72.3376 121.714C72.2401 121.675 72.1181 121.645 71.9718 121.626C71.8352 121.606 71.6547 121.597 71.4303 121.597C71.1376 121.597 70.8546 121.67 70.5815 121.816C70.3083 121.953 70.0839 122.167 69.9083 122.46C69.7327 122.743 69.6449 123.104 69.6449 123.543V127.333H67.6399ZM76.1327 117.777V124.948C76.1327 125.299 76.2205 125.558 76.3961 125.724C76.5815 125.88 76.8303 125.958 77.1425 125.958C77.3864 125.958 77.601 125.924 77.7864 125.855C77.9718 125.777 78.1376 125.675 78.284 125.548L78.6059 126.88C78.3718 127.065 78.0791 127.211 77.7279 127.319C77.3766 127.426 77.0059 127.48 76.6156 127.48C76.1278 127.48 75.6936 127.407 75.3131 127.26C74.9424 127.114 74.6497 126.88 74.4351 126.558C74.2302 126.236 74.1277 125.807 74.1277 125.27V118.333L76.1327 117.777ZM78.4742 120.016V121.509H72.7814V120.016H78.4742ZM82.7576 127.48C82.0161 127.48 81.338 127.348 80.7234 127.085C80.1185 126.821 79.6258 126.45 79.2453 125.972L80.4014 124.802C80.6356 125.153 80.9478 125.441 81.338 125.665C81.7283 125.889 82.1917 126.002 82.7283 126.002C83.1088 126.002 83.4113 125.948 83.6357 125.841C83.8698 125.724 83.9869 125.543 83.9869 125.299C83.9869 125.143 83.9333 125.011 83.8259 124.904C83.7186 124.787 83.504 124.694 83.182 124.626L81.8942 124.363C81.0454 124.187 80.4405 123.924 80.0795 123.572C79.7282 123.211 79.5526 122.748 79.5526 122.182C79.5526 121.782 79.6697 121.406 79.9039 121.055C80.1478 120.704 80.5087 120.421 80.9868 120.206C81.4649 119.982 82.06 119.87 82.7722 119.87C83.504 119.87 84.1381 119.987 84.6747 120.221C85.2211 120.445 85.6504 120.782 85.9626 121.231L84.7626 122.402C84.5479 122.06 84.265 121.802 83.9137 121.626C83.5723 121.441 83.2113 121.348 82.8308 121.348C82.5576 121.348 82.3234 121.377 82.1283 121.436C81.9332 121.494 81.7868 121.577 81.6893 121.684C81.5917 121.782 81.5429 121.909 81.5429 122.065C81.5429 122.221 81.6112 122.358 81.7478 122.475C81.8844 122.582 82.1332 122.675 82.4942 122.753L83.9869 123.06C84.7089 123.206 85.226 123.455 85.5382 123.806C85.8504 124.148 86.0065 124.563 86.0065 125.05C86.0065 125.519 85.8797 125.938 85.626 126.309C85.3821 126.67 85.0162 126.958 84.5284 127.172C84.0503 127.377 83.4601 127.48 82.7576 127.48ZM96.2495 122.665C96.2495 122.245 96.1275 121.919 95.8836 121.684C95.6495 121.45 95.3373 121.333 94.947 121.333C94.586 121.333 94.2689 121.426 93.9958 121.611C93.7226 121.797 93.5226 122.104 93.3957 122.533L91.6835 122.006C91.8493 121.362 92.2103 120.845 92.7664 120.455C93.3323 120.065 94.0884 119.87 95.0348 119.87C95.6787 119.87 96.2397 119.972 96.7178 120.177C97.1959 120.372 97.5666 120.67 97.83 121.07C98.1032 121.47 98.2398 121.972 98.2398 122.577V125.548C98.2398 125.919 98.4154 126.104 98.7666 126.104C98.9325 126.104 99.0886 126.08 99.235 126.031L99.1179 127.275C98.8642 127.402 98.5471 127.465 98.1666 127.465C97.8252 127.465 97.5178 127.407 97.2446 127.29C96.9715 127.172 96.7568 126.997 96.6007 126.763C96.4446 126.519 96.3666 126.216 96.3666 125.855V125.797L96.7178 125.738C96.6593 126.109 96.4983 126.426 96.2349 126.689C95.9714 126.943 95.6495 127.138 95.269 127.275C94.8982 127.411 94.5128 127.48 94.1128 127.48C93.6153 127.48 93.186 127.407 92.825 127.26C92.464 127.104 92.1859 126.88 91.9908 126.587C91.7957 126.294 91.6981 125.933 91.6981 125.504C91.6981 124.958 91.8737 124.514 92.225 124.172C92.5762 123.821 93.0786 123.582 93.7323 123.455L96.4836 122.899L96.469 124.143L94.7129 124.494C94.3811 124.563 94.1275 124.655 93.9519 124.772C93.786 124.88 93.7031 125.06 93.7031 125.314C93.7031 125.558 93.7909 125.743 93.9665 125.87C94.1519 125.997 94.3714 126.06 94.625 126.06C94.8299 126.06 95.0299 126.036 95.2251 125.987C95.4202 125.938 95.5958 125.86 95.7519 125.753C95.908 125.646 96.03 125.499 96.1178 125.314C96.2056 125.128 96.2495 124.904 96.2495 124.641V122.665ZM100.482 127.333V120.016H102.282L102.399 122.211L102.15 121.977C102.268 121.499 102.453 121.104 102.707 120.792C102.96 120.48 103.268 120.25 103.629 120.104C103.999 119.948 104.404 119.87 104.843 119.87C105.351 119.87 105.799 119.967 106.19 120.162C106.59 120.358 106.902 120.655 107.126 121.055C107.36 121.445 107.477 121.938 107.477 122.533V127.333H105.473V123.104C105.473 122.48 105.351 122.05 105.107 121.816C104.863 121.572 104.546 121.45 104.155 121.45C103.882 121.45 103.614 121.519 103.35 121.655C103.097 121.782 102.887 121.992 102.721 122.284C102.565 122.577 102.487 122.967 102.487 123.455V127.333H100.482ZM112.309 127.48C111.704 127.48 111.163 127.329 110.685 127.026C110.216 126.724 109.845 126.289 109.572 125.724C109.309 125.158 109.177 124.48 109.177 123.689C109.177 122.88 109.319 122.192 109.602 121.626C109.884 121.05 110.265 120.616 110.743 120.323C111.231 120.021 111.777 119.87 112.382 119.87C113.026 119.87 113.558 120.055 113.977 120.426C114.397 120.797 114.67 121.275 114.797 121.86L114.607 122.094V116.811H116.612V127.333H114.811L114.68 125.109L114.929 125.226C114.86 125.685 114.704 126.085 114.46 126.426C114.216 126.758 113.909 127.016 113.538 127.202C113.168 127.387 112.758 127.48 112.309 127.48ZM112.894 125.943C113.246 125.943 113.548 125.855 113.802 125.68C114.055 125.494 114.25 125.226 114.387 124.875C114.533 124.524 114.607 124.104 114.607 123.616C114.607 123.148 114.538 122.753 114.402 122.431C114.265 122.099 114.07 121.845 113.816 121.67C113.563 121.494 113.265 121.406 112.924 121.406C112.377 121.406 111.948 121.602 111.636 121.992C111.333 122.372 111.182 122.933 111.182 123.675C111.182 124.416 111.333 124.982 111.636 125.372C111.938 125.753 112.358 125.943 112.894 125.943ZM124.926 127.333L122.116 117.675H124.267L126.17 125.65L128.101 117.675H130.033L131.994 125.65L133.882 117.675H135.946L133.136 127.333H130.867L129.521 122.065L129.067 119.782H129.038L128.584 122.065L127.253 127.333H124.926ZM140.882 122.665C140.882 122.245 140.76 121.919 140.516 121.684C140.282 121.45 139.97 121.333 139.58 121.333C139.219 121.333 138.902 121.426 138.629 121.611C138.355 121.797 138.155 122.104 138.029 122.533L136.316 122.006C136.482 121.362 136.843 120.845 137.399 120.455C137.965 120.065 138.721 119.87 139.668 119.87C140.312 119.87 140.873 119.972 141.351 120.177C141.829 120.372 142.199 120.67 142.463 121.07C142.736 121.47 142.873 121.972 142.873 122.577V125.548C142.873 125.919 143.048 126.104 143.399 126.104C143.565 126.104 143.721 126.08 143.868 126.031L143.751 127.275C143.497 127.402 143.18 127.465 142.799 127.465C142.458 127.465 142.151 127.407 141.877 127.29C141.604 127.172 141.39 126.997 141.234 126.763C141.077 126.519 140.999 126.216 140.999 125.855V125.797L141.351 125.738C141.292 126.109 141.131 126.426 140.868 126.689C140.604 126.943 140.282 127.138 139.902 127.275C139.531 127.411 139.146 127.48 138.746 127.48C138.248 127.48 137.819 127.407 137.458 127.26C137.097 127.104 136.819 126.88 136.624 126.587C136.428 126.294 136.331 125.933 136.331 125.504C136.331 124.958 136.507 124.514 136.858 124.172C137.209 123.821 137.711 123.582 138.365 123.455L141.116 122.899L141.102 124.143L139.346 124.494C139.014 124.563 138.76 124.655 138.585 124.772C138.419 124.88 138.336 125.06 138.336 125.314C138.336 125.558 138.424 125.743 138.599 125.87C138.785 125.997 139.004 126.06 139.258 126.06C139.463 126.06 139.663 126.036 139.858 125.987C140.053 125.938 140.229 125.86 140.385 125.753C140.541 125.646 140.663 125.499 140.751 125.314C140.838 125.128 140.882 124.904 140.882 124.641V122.665ZM147.419 117.777V124.948C147.419 125.299 147.507 125.558 147.683 125.724C147.868 125.88 148.117 125.958 148.429 125.958C148.673 125.958 148.888 125.924 149.073 125.855C149.258 125.777 149.424 125.675 149.571 125.548L149.893 126.88C149.659 127.065 149.366 127.211 149.015 127.319C148.663 127.426 148.293 127.48 147.902 127.48C147.415 127.48 146.98 127.407 146.6 127.26C146.229 127.114 145.936 126.88 145.722 126.558C145.517 126.236 145.414 125.807 145.414 125.27V118.333L147.419 117.777ZM149.761 120.016V121.509H144.068V120.016H149.761ZM154.513 127.48C153.742 127.48 153.069 127.329 152.493 127.026C151.927 126.724 151.488 126.289 151.176 125.724C150.864 125.158 150.708 124.475 150.708 123.675C150.708 122.875 150.864 122.192 151.176 121.626C151.488 121.06 151.922 120.626 152.478 120.323C153.044 120.021 153.688 119.87 154.41 119.87C155.152 119.87 155.781 120.021 156.298 120.323C156.815 120.616 157.21 121.021 157.483 121.538C157.757 122.045 157.893 122.626 157.893 123.28C157.893 123.475 157.888 123.66 157.879 123.836C157.869 124.011 157.854 124.167 157.835 124.304H151.995V122.914H156.957L155.991 123.265C155.991 122.65 155.849 122.177 155.566 121.845C155.293 121.514 154.903 121.348 154.396 121.348C154.025 121.348 153.703 121.436 153.43 121.611C153.166 121.787 152.966 122.05 152.83 122.402C152.693 122.743 152.625 123.177 152.625 123.704C152.625 124.221 152.698 124.65 152.844 124.992C153 125.324 153.215 125.572 153.488 125.738C153.771 125.904 154.108 125.987 154.498 125.987C154.927 125.987 155.274 125.904 155.537 125.738C155.8 125.572 156.005 125.343 156.152 125.05L157.747 125.665C157.591 126.046 157.352 126.372 157.03 126.646C156.718 126.919 156.342 127.129 155.903 127.275C155.474 127.411 155.01 127.48 154.513 127.48ZM159.592 127.333V120.016H161.334L161.466 121.45C161.661 120.943 161.944 120.553 162.314 120.28C162.695 120.006 163.168 119.87 163.734 119.87C163.9 119.87 164.051 119.884 164.188 119.914C164.324 119.943 164.436 119.982 164.524 120.031L164.29 121.714C164.193 121.675 164.071 121.645 163.924 121.626C163.788 121.606 163.607 121.597 163.383 121.597C163.09 121.597 162.807 121.67 162.534 121.816C162.261 121.953 162.036 122.167 161.861 122.46C161.685 122.743 161.597 123.104 161.597 123.543V127.333H159.592ZM175.206 120.016H177.342L175.001 127.333H172.689L171.093 122.358L169.557 127.333H167.244L164.903 120.016H167.04L168.503 125.621L170.127 120.016H172.118L173.757 125.621L175.206 120.016ZM182.642 122.665C182.642 122.245 182.521 121.919 182.277 121.684C182.042 121.45 181.73 121.333 181.34 121.333C180.979 121.333 180.662 121.426 180.389 121.611C180.116 121.797 179.916 122.104 179.789 122.533L178.076 122.006C178.242 121.362 178.603 120.845 179.159 120.455C179.725 120.065 180.481 119.87 181.428 119.87C182.072 119.87 182.633 119.972 183.111 120.177C183.589 120.372 183.96 120.67 184.223 121.07C184.496 121.47 184.633 121.972 184.633 122.577V125.548C184.633 125.919 184.808 126.104 185.16 126.104C185.325 126.104 185.482 126.08 185.628 126.031L185.511 127.275C185.257 127.402 184.94 127.465 184.56 127.465C184.218 127.465 183.911 127.407 183.638 127.29C183.364 127.172 183.15 126.997 182.994 126.763C182.838 126.519 182.76 126.216 182.76 125.855V125.797L183.111 125.738C183.052 126.109 182.891 126.426 182.628 126.689C182.364 126.943 182.042 127.138 181.662 127.275C181.291 127.411 180.906 127.48 180.506 127.48C180.008 127.48 179.579 127.407 179.218 127.26C178.857 127.104 178.579 126.88 178.384 126.587C178.189 126.294 178.091 125.933 178.091 125.504C178.091 124.958 178.267 124.514 178.618 124.172C178.969 123.821 179.472 123.582 180.125 123.455L182.877 122.899L182.862 124.143L181.106 124.494C180.774 124.563 180.52 124.655 180.345 124.772C180.179 124.88 180.096 125.06 180.096 125.314C180.096 125.558 180.184 125.743 180.359 125.87C180.545 125.997 180.764 126.06 181.018 126.06C181.223 126.06 181.423 126.036 181.618 125.987C181.813 125.938 181.989 125.86 182.145 125.753C182.301 125.646 182.423 125.499 182.511 125.314C182.599 125.128 182.642 124.904 182.642 124.641V122.665ZM193.296 120.016L190.34 127.787C190.106 128.451 189.842 128.977 189.55 129.368C189.267 129.758 188.935 130.041 188.554 130.216C188.184 130.392 187.74 130.48 187.223 130.48C186.842 130.48 186.491 130.431 186.169 130.334C185.857 130.246 185.584 130.129 185.349 129.982L185.774 128.533C185.959 128.68 186.154 128.782 186.359 128.841C186.564 128.909 186.798 128.943 187.062 128.943C187.335 128.943 187.569 128.885 187.764 128.768C187.969 128.651 188.14 128.416 188.276 128.065L188.525 127.436L187.72 125.533L185.481 120.016H187.706L189.096 124.406L189.476 125.87L189.93 124.319L191.262 120.016H193.296ZM197.177 127.48C196.435 127.48 195.757 127.348 195.142 127.085C194.537 126.821 194.045 126.45 193.664 125.972L194.82 124.802C195.054 125.153 195.367 125.441 195.757 125.665C196.147 125.889 196.611 126.002 197.147 126.002C197.528 126.002 197.83 125.948 198.055 125.841C198.289 125.724 198.406 125.543 198.406 125.299C198.406 125.143 198.352 125.011 198.245 124.904C198.138 124.787 197.923 124.694 197.601 124.626L196.313 124.363C195.464 124.187 194.859 123.924 194.498 123.572C194.147 123.211 193.972 122.748 193.972 122.182C193.972 121.782 194.089 121.406 194.323 121.055C194.567 120.704 194.928 120.421 195.406 120.206C195.884 119.982 196.479 119.87 197.191 119.87C197.923 119.87 198.557 119.987 199.094 120.221C199.64 120.445 200.069 120.782 200.382 121.231L199.181 122.402C198.967 122.06 198.684 121.802 198.333 121.626C197.991 121.441 197.63 121.348 197.25 121.348C196.977 121.348 196.742 121.377 196.547 121.436C196.352 121.494 196.206 121.577 196.108 121.684C196.011 121.782 195.962 121.909 195.962 122.065C195.962 122.221 196.03 122.358 196.167 122.475C196.303 122.582 196.552 122.675 196.913 122.753L198.406 123.06C199.128 123.206 199.645 123.455 199.957 123.806C200.269 124.148 200.425 124.563 200.425 125.05C200.425 125.519 200.299 125.938 200.045 126.309C199.801 126.67 199.435 126.958 198.947 127.172C198.469 127.377 197.879 127.48 197.177 127.48Z" fill="#2947A9"/>
</g>
<defs>
<filter id="filter0_d_116_95" x="-3.57628e-07" y="-3.57628e-07" width="249.521" height="183.665" filterUnits="userSpaceOnUse" color-interpolation-filters="sRGB">
<feFlood flood-opacity="0" result="BackgroundImageFix"/>
<feColorMatrix in="SourceAlpha" type="matrix" values="0 0 0 0 0 0 0 0 0 0 0 0 0 0 0 0 0 0 127 0" result="hardAlpha"/>
<feMorphology radius="1.46346" operator="erode" in="SourceAlpha" result="effect1_dropShadow_116_95"/>
<feOffset/>
<feGaussianBlur stdDeviation="13.537"/>
<feColorMatrix type="matrix" values="0 0 0 0 0.0666667 0 0 0 0 0.0941176 0 0 0 0 0.152941 0 0 0 0.05 0"/>
<feBlend mode="normal" in2="BackgroundImageFix" result="effect1_dropShadow_116_95"/>
<feBlend mode="normal" in="SourceGraphic" in2="effect1_dropShadow_116_95" result="shape"/>
</filter>
<clipPath id="clip0_116_95">
<rect width="29.2693" height="29.2693" fill="white" transform="translate(110.126 53.3314)"/>
</clipPath>
</defs>
</svg>